<?xml version="1.0" encoding="UTF-8"?>
<svg version="1.1" xmlns="http://www.w3.org/2000/svg" width="1024" height="1024">
<path d="M0 0 C1.08990234 -0.01224609 2.17980469 -0.02449219 3.30273438 -0.03710938 C14.3143597 -0.05673794 26.34334634 0.22718299 34.96484375 7.875 C40.87956666 14.077331 44.5165024 21.24534404 44.31469727 29.94628906 C43.81952978 34.34671258 42.28464177 38.40698742 40.8125 42.5625 C40.45897461 43.59068848 40.10544922 44.61887695 39.74121094 45.67822266 C38.52933058 49.18648736 37.29723917 52.68721839 36.0625 56.1875 C35.6077449 57.48426002 35.15332522 58.7811377 34.69921875 60.078125 C31.69161988 68.66481815 28.65720097 77.24186932 25.61376953 85.81591797 C21.34726752 97.83594452 17.10349863 109.86402029 12.8692627 121.89544678 C12.32772798 123.43397403 11.78597703 124.97242519 11.24401855 126.51080322 C-4.1679248 170.26174892 -19.02789868 214.2086923 -33.62496948 258.23786926 C-35.37448204 263.50838537 -37.14067838 268.77318244 -38.91136169 274.03662109 C-46.75910387 297.36625103 -54.48764174 320.71435147 -61.65209961 344.26416016 C-64.26232205 352.83739685 -66.96378385 361.36685644 -69.82136536 369.8611145 C-71.91426042 376.08715231 -73.90154573 382.34056629 -75.8125 388.625 C-76.11929688 389.61564453 -76.42609375 390.60628906 -76.7421875 391.62695312 C-77.1753125 393.04717773 -77.1753125 393.04717773 -77.6171875 394.49609375 C-77.87226074 395.32939209 -78.12733398 396.16269043 -78.39013672 397.02124023 C-79.05998865 399.29987393 -79.05998865 399.29987393 -78.9375 402.1875 C-79.5975 402.1875 -80.2575 402.1875 -80.9375 402.1875 C-80.97875 402.8475 -81.02 403.5075 -81.0625 404.1875 C-83.14090808 411.31347055 -88.57449571 416.63379052 -94.9375 420.1875 C-101.42219564 423.0123659 -107.44334342 423.65471798 -114.45703125 423.65625 C-115.43685471 423.66386353 -116.41667816 423.67147705 -117.42619324 423.67932129 C-119.48763498 423.69006624 -121.54913091 423.69299838 -123.6105957 423.68847656 C-126.73157457 423.68750573 -129.85007903 423.72916286 -132.97070312 423.7734375 C-145.25255447 423.84650063 -155.21675531 423.36284821 -165.4375 415.8125 C-168.44114247 412.6586754 -171.9375 408.76192876 -171.9375 404.1875 C-172.5975 403.8575 -173.2575 403.5275 -173.9375 403.1875 C-174.64677672 390.35296888 -173.09874962 380.20877375 -168.6875 368.1875 C-168.14686184 366.64876219 -167.60882797 365.10910718 -167.07324219 363.56860352 C-165.67755791 359.57513813 -164.24950594 355.59411687 -162.81201172 351.61553955 C-161.0627423 346.75877748 -159.34705937 341.8900576 -157.628479 337.02236938 C-156.29557345 333.24846061 -154.95620301 329.47730191 -153.59667969 325.71289062 C-153.35026733 325.02562393 -153.10385498 324.33835724 -152.84997559 323.63026428 C-152.18583354 321.77840118 -151.51738953 319.92808249 -150.84863281 318.07788086 C-149.78717723 315.21573005 -149.78717723 315.21573005 -149.9375 312.1875 C-149.2775 312.1875 -148.6175 312.1875 -147.9375 312.1875 C-147.71320313 310.99898437 -147.48890625 309.81046875 -147.2578125 308.5859375 C-145.74781257 301.7869431 -143.22294931 295.33262281 -140.8125 288.8125 C-139.88762305 286.30664764 -138.96945003 283.79865884 -138.0546875 281.2890625 C-137.64847168 280.18900879 -137.24225586 279.08895508 -136.82373047 277.95556641 C-135.78504204 275.19572284 -135.78504204 275.19572284 -135.9375 272.1875 C-135.2775 272.1875 -134.6175 272.1875 -133.9375 272.1875 C-133.84162598 271.39359863 -133.74575195 270.59969727 -133.64697266 269.78173828 C-132.74558652 265.21525282 -131.2046138 261.03515316 -129.5859375 256.6796875 C-129.08025742 255.29863327 -129.08025742 255.29863327 -128.56436157 253.88967896 C-127.48534438 250.94544537 -126.39926912 248.00387999 -125.3125 245.0625 C-123.90140024 241.22738555 -122.49303168 237.39127328 -121.0859375 233.5546875 C-120.74069031 232.61341003 -120.39544312 231.67213257 -120.03973389 230.70233154 C-117.62696443 224.10899434 -115.24922902 217.50404321 -112.9140625 210.8828125 C-112.61253265 210.03403534 -112.31100281 209.18525818 -112.00033569 208.3107605 C-110.49182552 204.34548656 -110.49182552 204.34548656 -109.9375 200.1875 C-109.2775 200.1875 -108.6175 200.1875 -107.9375 200.1875 C-107.8331665 199.36314453 -107.72883301 198.53878906 -107.62133789 197.68945312 C-106.82735035 193.62342052 -105.49727431 190.00489501 -103.99609375 186.15625 C-103.40667075 184.60816058 -102.81748523 183.05998072 -102.22851562 181.51171875 C-101.30157145 179.09443713 -100.37149372 176.6784437 -99.43676758 174.26416016 C-98.53123822 171.91889396 -97.63803212 169.56921233 -96.74609375 167.21875 C-96.46487167 166.50295776 -96.1836496 165.78716553 -95.89390564 165.04968262 C-94.34419892 160.94449442 -93.62929303 157.57355522 -93.9375 153.1875 C-93.2775 153.1875 -92.6175 153.1875 -91.9375 153.1875 C-89.06905846 145.3764319 -89.06905846 145.3764319 -86.20776367 137.56274414 C-83.24787032 129.47139441 -80.27252569 121.38603351 -77.27806091 113.30740356 C-75.53373599 108.5972048 -73.79618618 103.88452078 -72.05947876 99.17150879 C-71.18652075 96.80724497 -70.31068549 94.44404154 -69.43197632 92.08190918 C-68.18285119 88.72267869 -66.94391021 85.35984917 -65.70703125 81.99609375 C-65.1359111 80.47123604 -65.1359111 80.47123604 -64.55325317 78.91557312 C-64.20801605 77.97075577 -63.86277893 77.02593842 -63.50708008 76.05249023 C-63.20272537 75.23030502 -62.89837067 74.40811981 -62.58479309 73.5610199 C-61.88906534 71.00989788 -61.9203102 68.81718754 -61.9375 66.1875 C-60.96016305 65.1653393 -59.95594676 64.1687065 -58.9375 63.1875 C-57.95365753 60.97853559 -57.06354029 58.72715494 -56.23046875 56.45703125 C-55.85865227 55.45490852 -55.85865227 55.45490852 -55.47932434 54.43254089 C-54.68676015 52.29113961 -53.90565287 50.14576854 -53.125 48 C-52.61209645 46.60713871 -52.09843114 45.21455768 -51.58398438 43.82226562 C-49.4901445 38.14721352 -47.39740428 32.47225238 -45.35400391 26.77880859 C-44.83644651 25.35637854 -44.31871193 23.93401293 -43.80078125 22.51171875 C-43.57206833 21.86394974 -43.34335541 21.21618073 -43.10771179 20.54878235 C-40.05287771 12.22065387 -35.54650969 6.71793669 -27.75 2.4375 C-19.26614979 -0.86177508 -8.94633185 0.00527185 0 0 Z " fill="#001C1D" transform="translate(565.9375,279.8125)"/>
<path d="M0 0 C4.80006578 3.48612372 9.26961776 7.29544611 13.70068359 11.23095703 C15.51117646 12.83045073 17.3401012 14.40606282 19.17578125 15.9765625 C25.85708889 21.70117935 32.40079022 27.54124007 38.8293457 33.54785156 C43.01878944 37.43772581 47.38741952 41.05871983 51.84375 44.640625 C55.37617252 47.53700121 58.7494402 50.59150919 62.125 53.66796875 C64.27567711 55.61791599 66.45699971 57.52323004 68.65625 59.41796875 C71.14337797 61.5781038 73.490584 63.80130909 75.78125 66.16796875 C78.52262665 68.95862857 81.412959 71.41354419 84.46875 73.85546875 C89.92945912 78.24663208 95.02200977 82.96415289 100.11987305 87.76855469 C103.87739809 91.30969795 107.66903943 94.78649348 111.58203125 98.15625 C113.90533787 100.17170647 116.18623465 102.23145337 118.46875 104.29296875 C123.81112419 109.10920003 129.1867187 113.8773895 134.69140625 118.5078125 C159.54054193 139.4611963 159.54054193 139.4611963 160.796875 150.73828125 C161.12320622 160.0387211 159.46438888 165.75011472 153.40625 172.79296875 C149.62017256 176.79817608 145.61909753 180.25620643 141.25390625 183.609375 C137.98254216 186.17416115 134.85544654 188.87914873 131.71875 191.60546875 C126.39290184 196.21731811 120.93567566 200.61344943 115.36816406 204.92895508 C112.13142537 207.44961326 109.00598035 210.03082951 105.96875 212.79296875 C102.37139487 216.06450059 98.62148425 219.06636797 94.78125 222.04296875 C89.89274485 225.83340795 85.13850868 229.73618555 80.46875 233.79296875 C75.89877907 237.76130872 71.25372552 241.58668327 66.46875 245.29296875 C60.98272062 249.54287233 55.69019856 253.97512746 50.4440918 258.5168457 C46.33549118 262.06858389 42.15091771 265.50184265 37.890625 268.87109375 C35.25019843 270.96639999 32.63876977 273.09436499 30.03125 275.23046875 C29.11730469 275.978125 28.20335937 276.72578125 27.26171875 277.49609375 C25.38329065 279.04087098 23.51097195 280.59310421 21.64453125 282.15234375 C9.39069135 292.33824135 -0.89390981 299.87179942 -17.53125 298.79296875 C-22.34904686 298.02175181 -27.03366301 296.68142145 -31.53125 294.79296875 C-31.86125 294.13296875 -32.19125 293.47296875 -32.53125 292.79296875 C-33.85768192 292.11267427 -35.1922071 291.44809189 -36.53125 290.79296875 C-45.49755013 284.2406725 -51.80367301 275.40206075 -54 264.45703125 C-55.62830957 252.72580092 -52.47558751 243.27942982 -45.53125 233.79296875 C-40.26499184 227.86059163 -34.42401505 222.56346662 -28.3828125 217.4296875 C-25.76819911 215.11845752 -23.3724327 212.61328998 -20.9765625 210.078125 C-19.53125 208.79296875 -19.53125 208.79296875 -17.53125 208.79296875 C-17.53125 208.13296875 -17.53125 207.47296875 -17.53125 206.79296875 C-16.1328125 205.41796875 -16.1328125 205.41796875 -14.15625 203.79296875 C-10.78329852 200.9325152 -7.63451523 197.94427214 -4.53125 194.79296875 C-0.98892801 191.20738176 2.64430661 187.84405213 6.47265625 184.5703125 C8.73007626 182.56028098 10.84610713 180.44463922 12.96875 178.29296875 C16.27921373 174.93731098 19.69695917 171.82238916 23.28125 168.765625 C26.59770534 165.77489295 29.69891466 162.57145614 32.78857422 159.34814453 C33.97915795 158.1267809 35.22036387 156.95518681 36.46875 155.79296875 C37.12875 155.79296875 37.78875 155.79296875 38.46875 155.79296875 C38.46875 155.13296875 38.46875 154.47296875 38.46875 153.79296875 C39.76108607 152.41986168 41.09312146 151.08262051 42.46875 149.79296875 C41.80230469 149.13699707 41.13585937 148.48102539 40.44921875 147.80517578 C37.98525471 145.37524201 35.5258158 142.94090834 33.06933594 140.50341797 C32.0040674 139.44822366 30.93701303 138.39482911 29.86816406 137.34326172 C28.33448784 135.83377148 26.80729432 134.31798176 25.28125 132.80078125 C24.35957031 131.8895752 23.43789063 130.97836914 22.48828125 130.03955078 C20.46875 127.79296875 20.46875 127.79296875 20.46875 125.79296875 C19.80875 125.79296875 19.14875 125.79296875 18.46875 125.79296875 C18.46875 125.13296875 18.46875 124.47296875 18.46875 123.79296875 C17.91703125 123.56609375 17.3653125 123.33921875 16.796875 123.10546875 C13.78182583 121.40570949 11.65644631 119.24492059 9.21875 116.79296875 C7.88070312 115.46265625 7.88070312 115.46265625 6.515625 114.10546875 C4.46875 111.79296875 4.46875 111.79296875 4.46875 109.79296875 C3.60262085 109.41579712 3.60262085 109.41579712 2.71899414 109.03100586 C0.17942066 107.63378582 -1.50295087 106.04824605 -3.53515625 103.984375 C-4.27572266 103.23736328 -5.01628906 102.49035156 -5.77929688 101.72070312 C-6.54306641 100.94017578 -7.30683594 100.15964844 -8.09375 99.35546875 C-8.86138672 98.57880859 -9.62902344 97.80214844 -10.41992188 97.00195312 C-11.84677646 95.5576827 -13.2715659 94.111367 -14.69360352 92.66235352 C-15.86194948 91.47382887 -17.05323937 90.30711992 -18.27319336 89.17163086 C-19.53125 87.79296875 -19.53125 87.79296875 -19.53125 85.79296875 C-20.19125 85.79296875 -20.85125 85.79296875 -21.53125 85.79296875 C-21.53125 85.13296875 -21.53125 84.47296875 -21.53125 83.79296875 C-22.19125 83.79296875 -22.85125 83.79296875 -23.53125 83.79296875 C-24.73046875 82.5703125 -24.73046875 82.5703125 -26.21875 80.73046875 C-30.53804096 75.61672046 -35.30627139 70.98866176 -40.11206055 66.33764648 C-48.74736344 57.86025898 -54.36251687 48.79136029 -55.03125 36.29296875 C-54.39085679 25.36625968 -49.93356693 15.73902849 -42.53125 7.79296875 C-30.9007499 -2.41546147 -14.55347684 -8.65931872 0 0 Z " fill="#001B1C" transform="translate(688.53125,345.20703125)"/>
<path d="M0 0 C9.88834995 7.49322658 17.25903438 15.65167017 20 28 C21.23711592 39.81445703 19.60884267 50.37876903 12.03125 59.7734375 C8.21017615 63.9619223 4.15555133 67.91718167 0.11328125 71.890625 C-2.86465772 74.83402944 -5.61917913 77.9176467 -8.328125 81.109375 C-10.29754029 83.33647079 -12.38374342 85.41214954 -14.5 87.5 C-17.16269628 90.12707492 -19.7126475 92.76729011 -22.125 95.625 C-26.27456623 100.47590137 -30.85196507 104.90350173 -35.40673828 109.36962891 C-38.54369388 112.46409383 -41.56298083 115.59648743 -44.4375 118.9375 C-48.90682643 124.12071209 -53.80386104 128.85209251 -58.68359375 133.64453125 C-62.22320776 137.14574077 -65.71982481 140.68197009 -69.09375 144.34375 C-69.67833984 144.97474609 -70.26292969 145.60574219 -70.86523438 146.25585938 C-71.23970703 146.83142578 -71.61417969 147.40699219 -72 148 C-70.89513102 151.31460693 -70.12376914 151.96976106 -67.5 154.125 C-64.34893765 156.79214921 -61.39410589 159.55564922 -58.5 162.5 C-55.11758601 165.9288279 -51.61929558 169.12048518 -47.96484375 172.25390625 C-45.18438168 174.72481389 -42.60881782 177.3816694 -40 180.03125 C-38.06108998 181.93986455 -36.06300449 183.72710552 -34 185.5 C-31.21103607 187.89676588 -28.58009215 190.37959391 -26 193 C-22.86799583 196.1744926 -19.61985414 199.12956552 -16.24609375 202.04296875 C-13.57271742 204.37229317 -10.93417029 206.73784664 -8.3125 209.125 C-7.55767334 209.81203003 -7.55767334 209.81203003 -6.78759766 210.51293945 C-3.96906333 213.10565518 -1.22976609 215.75520945 1.44921875 218.4921875 C2.0213208 219.07597168 2.59342285 219.65975586 3.18286133 220.26123047 C4.28249621 221.39116837 5.37522117 222.52788708 6.4597168 223.67236328 C9.69482333 227.00281707 12.66454609 229.1364019 17 231 C17 231.99 17 232.98 17 234 C17.89929324 235.61759664 18.86736925 237.19757368 19.875 238.75 C25.2120497 247.48564267 26.49787978 256.11485943 24.3125 266.16015625 C22.30833961 272.76553486 19.60168962 277.87589634 15 283 C14.48695313 283.60457031 13.97390625 284.20914062 13.4453125 284.83203125 C5.08192291 294.01575331 -4.84727309 297.15585849 -17 298 C-18.08667969 297.99226563 -19.17335938 297.98453125 -20.29296875 297.9765625 C-22.96910851 297.80144877 -22.96910851 297.80144877 -25 299 C-25.495 298.5875 -25.99 298.175 -26.5 297.75 C-29.07189277 295.83683148 -29.07189277 295.83683148 -32.5625 294.375 C-37.77661293 291.82056302 -41.93569072 288.13319929 -46.33984375 284.39501953 C-49.52389818 281.71947733 -52.76720284 279.1162308 -56 276.5 C-63.29762409 270.57660938 -70.58598666 264.641865 -77.8359375 258.66015625 C-82.46295951 254.85078608 -87.09402794 251.09261743 -91.953125 247.58203125 C-96.20285727 244.29740994 -100.19888119 240.69569113 -104.25390625 237.17578125 C-110.71073113 231.5798018 -117.26493657 226.17243606 -124.02075195 220.94140625 C-128.41417113 217.51747941 -132.5497728 213.87449735 -136.65234375 210.10546875 C-139.76296053 207.31574754 -143.02449806 204.74626172 -146.3046875 202.16015625 C-149.96664433 199.2252836 -153.53338208 196.18409296 -157.10595703 193.14160156 C-160.59715856 190.17320721 -164.12510877 187.25812172 -167.6875 184.375 C-185.82693273 169.51920181 -185.82693273 169.51920181 -189 160 C-190.02129268 149.59740452 -188.37114304 142.59974348 -181.95703125 134.3828125 C-180.04329762 132.14489449 -178.17383035 129.9866794 -176 128 C-175.34 128 -174.68 128 -174 128 C-174 127.34 -174 126.68 -174 126 C-172.35546875 124.37890625 -172.35546875 124.37890625 -170.1875 122.5625 C-167.17536735 120.02660668 -167.17536735 120.02660668 -164.36328125 117.27734375 C-163 116 -163 116 -161 116 C-161 115.34 -161 114.68 -161 114 C-159.55981445 112.56347656 -159.55981445 112.56347656 -157.55078125 110.890625 C-152.95695295 106.9839986 -148.56716008 102.89386196 -144.1875 98.75 C-143.06311523 97.69039062 -143.06311523 97.69039062 -141.91601562 96.609375 C-138.07587941 93.02206466 -138.07587941 93.02206466 -134.3918457 89.27832031 C-133 88 -133 88 -131 88 C-131 87.34 -131 86.68 -131 86 C-129.49609375 84.51953125 -129.49609375 84.51953125 -127.4375 82.8125 C-122.50030442 78.61193751 -117.61165468 74.41748202 -114 69 C-113.34 69 -112.68 69 -112 69 C-110.24222411 67.44905541 -110.24222411 67.44905541 -108.375 65.4375 C-105.80625982 62.80465579 -103.23235552 60.26622212 -100.4375 57.875 C-95.70215669 53.80541783 -91.1730656 49.5198103 -86.63061523 45.23779297 C-83.47893025 42.27624924 -80.29721122 39.36664016 -77.03125 36.53125 C-72.91994636 32.95828389 -68.95394005 29.24543149 -65 25.5 C-60.37749912 21.12126382 -55.70858272 16.82313797 -50.89746094 12.65185547 C-49.15648761 11.13623201 -47.43908158 9.59837157 -45.7265625 8.05078125 C-32.8050024 -3.47390871 -16.45587402 -9.74986755 0 0 Z " fill="#001B1C" transform="translate(339,346)"/>
<path d="M0 0 C9.57 0 19.14 0 29 0 C26.75027639 10.12375623 26.75027639 10.12375623 25.25439453 14.18188477 C24.91790894 15.1037709 24.58142334 16.02565704 24.23474121 16.97547913 C23.87110474 17.95423508 23.50746826 18.93299103 23.1328125 19.94140625 C22.74613403 20.99706284 22.35945557 22.05271942 21.96105957 23.1403656 C21.12481308 25.42201232 20.28608502 27.70275076 19.44512939 29.98266602 C17.40539199 35.51388236 15.38129824 41.05081694 13.35697556 46.58768845 C12.65137413 48.5172399 11.94514861 50.44656226 11.23892212 52.37588501 C6.29486682 65.89124322 1.45392694 79.44312929 -3.375 93 C-4.21878809 95.36744707 -5.06261922 97.7348788 -5.90649414 100.10229492 C-7.13290521 103.54307643 -8.35924621 106.98388273 -9.58522034 110.42481995 C-13.14503867 120.41395586 -16.72546123 130.39561289 -20.3125 140.375 C-37.39639581 187.92267061 -54.31005935 235.52934756 -70.97052002 283.2270813 C-77.33487007 301.44605516 -83.75739064 319.64285173 -90.29541016 337.80029297 C-93.66132063 347.16050694 -96.890934 356.55099157 -100 366 C-109.57 366 -119.14 366 -129 366 C-128.23717579 362.18587896 -127.36149426 358.88509181 -126.10498047 355.23974609 C-125.71242569 354.09589951 -125.31987091 352.95205292 -124.91542053 351.77354431 C-124.27279518 349.91724144 -124.27279518 349.91724144 -123.6171875 348.0234375 C-123.16640067 346.71412483 -122.7158805 345.40472033 -122.26560974 344.0952301 C-121.05708705 340.58338601 -119.84446389 337.0729708 -118.63095474 333.56284714 C-117.61772393 330.6304042 -116.60689058 327.69713726 -115.59605122 324.76386929 C-109.29159197 306.47050443 -102.95218264 288.18942241 -96.55859375 269.92700195 C-93.1188632 260.09810952 -89.70556729 250.26051766 -86.31640625 240.4140625 C-77.93978162 216.08044213 -69.50221626 191.78011704 -60.67822266 167.60498047 C-57.80833731 159.73753249 -54.9659195 151.86010616 -52.11886597 143.984375 C-51.05821436 141.05064606 -49.99706639 138.11709709 -48.93579102 135.18359375 C-43.1243221 119.11853881 -37.32312691 103.04978203 -31.52647018 86.97937775 C-31.05107514 85.66141463 -30.57566472 84.34345705 -30.1002388 83.02550507 C-25.29013161 69.69108304 -20.48178571 56.35604998 -15.69921875 43.01171875 C-15.37613235 42.11043243 -15.05304596 41.20914612 -14.72016907 40.2805481 C-13.27359254 36.24433092 -11.82839854 32.20762911 -10.38598633 28.16992188 C-7.0143089 18.74472303 -3.53384996 9.36575413 0 0 Z " fill="#45FAC1" transform="translate(550,308)"/>
<path d="M0 0 C1.32 0.33 2.64 0.66 4 1 C4 1.66 4 2.32 4 3 C4.56203125 3.23332031 5.1240625 3.46664063 5.703125 3.70703125 C8.56734142 5.31937076 10.47252021 7.3193562 12.75 9.6875 C15.72656345 12.72924367 18.69396244 15.682165 21.9375 18.4375 C25.80459816 21.74211116 29.35777845 25.32845304 32.92675781 28.94628906 C36.19348513 32.24025803 39.57885208 35.31474342 43.10546875 38.32421875 C45.86797849 40.76775829 48.41726658 43.40817912 51.00390625 46.03515625 C52.92107177 47.92230744 54.89575322 49.68685375 56.9375 51.4375 C60.74824063 54.71130653 64.25078165 58.23363971 67.77734375 61.80859375 C70.4270144 64.42101068 73.21172803 66.83302621 76.03515625 69.25390625 C78.81424514 71.7235936 81.38860496 74.37903322 83.99609375 77.02734375 C86.58246151 79.57337829 89.3153528 81.92021557 92.06640625 84.28515625 C93.95494597 85.96004299 95.73155648 87.69947587 97.5 89.5 C100.42386988 92.46976021 103.48581554 95.20506379 106.640625 97.92578125 C109.59864299 100.52629044 112.48694182 103.19729416 115.375 105.875 C119.22600689 109.44432001 123.088775 112.99645969 127 116.5 C133.06243401 121.93218097 139.02846389 127.46837329 145 133 C141.35287885 136.74220439 137.54926951 140.18726373 133.5625 143.5625 C132.31762011 144.62229221 131.07283106 145.68219114 129.828125 146.7421875 C128.87776367 147.54994629 128.87776367 147.54994629 127.90820312 148.37402344 C126.05347375 149.95443511 124.20517446 151.54198534 122.359375 153.1328125 C117.03956884 157.71596285 111.70666384 162.26691158 106.25 166.6875 C101.86848205 170.24267904 97.68289319 173.96769537 93.51171875 177.765625 C90.99848768 180.00134533 88.42688521 182.13377682 85.8125 184.25 C79.37288007 189.46518515 73.14544597 194.91331752 66.89648438 200.35351562 C63.92144811 202.93637409 60.9305594 205.50056914 57.9375 208.0625 C57.36410889 208.55339111 56.79071777 209.04428223 56.19995117 209.55004883 C55.04469482 210.53885203 53.88934024 211.52754049 52.73388672 212.51611328 C50.40529839 214.50895471 48.07829738 216.50364418 45.75146484 218.49853516 C44.58660944 219.49712183 43.42157121 220.49549528 42.25634766 221.49365234 C39.29911478 224.02712277 36.34452942 226.56357624 33.39453125 229.10546875 C27.15851018 234.47372963 20.87712851 239.76632752 14.48828125 244.953125 C10.92047727 247.88802184 7.44879703 250.92671669 4 254 C-2.467953 248.58803933 -9.15795206 242.97254903 -14 236 C-14 235.01 -14 234.02 -14 233 C-11.91015625 231.0546875 -11.91015625 231.0546875 -9.0625 228.875 C-4.40880766 225.19977631 -0.22688356 221.33648614 3.91015625 217.09765625 C5.757311 215.24359625 7.63998169 213.51577378 9.625 211.8125 C13.60196012 208.3980183 17.42590461 204.83332433 21.25 201.25 C30.23133761 192.8380041 39.29291406 184.52247111 48.44921875 176.30078125 C55.51830881 169.92452697 62.50674488 163.45916404 69.5 157 C88.35911476 139.58464522 88.35911476 139.58464522 96 133 C94.3723398 128.87352881 91.38419928 126.12383505 88.28442383 123.07324219 C87.40840012 122.19918983 87.40840012 122.19918983 86.51467896 121.30747986 C84.58335128 119.38264075 82.64514601 117.46487793 80.70703125 115.546875 C79.35851479 114.20463335 78.01051513 112.86187231 76.66300964 111.51861572 C73.11069318 107.97960606 69.55286356 104.44619556 65.9934082 100.91436768 C60.31320719 95.27724666 54.63958051 89.63353069 48.96936607 83.98636627 C46.99605174 82.02319492 45.01931294 80.06352219 43.04219055 78.10418701 C37.66841446 72.76618587 32.3565099 67.44990246 27.44779968 61.67388916 C25.06156903 58.91502295 22.47396217 56.36922596 19.875 53.8125 C19.32440918 53.2656958 18.77381836 52.7188916 18.20654297 52.15551758 C16.47349183 50.43450493 14.73720227 48.71682168 13 47 C-0.30708917 33.84902751 -0.30708917 33.84902751 -5.61767578 27.609375 C-7.4570035 25.46793234 -9.42451291 23.47767153 -11.4375 21.5 C-12.11683594 20.8296875 -12.79617188 20.159375 -13.49609375 19.46875 C-13.99238281 18.9840625 -14.48867188 18.499375 -15 18 C-10.43492321 11.59099023 -5.33082532 5.7809839 0 0 Z " fill="#46FAC2" transform="translate(673,366)"/>
<path d="M0 0 C4.60388182 3.75827087 8.58816922 7.62663971 12.421875 12.16796875 C13.88104785 13.86190951 15.39822318 15.44164484 17 17 C15.38970099 21.09894293 12.42178599 23.76201502 9.3125 26.75 C5.95978708 30.03156782 2.64957297 33.28283364 -0.375 36.875 C-4.2361601 41.42089785 -8.50433275 45.55685856 -12.76318359 49.72607422 C-15.70988157 52.62969423 -18.53100681 55.5728321 -21.21875 58.71875 C-26.47636674 64.80960511 -32.30594372 70.3621679 -38.02978516 76.00927734 C-43.25675956 81.17248769 -48.38221491 86.3454046 -53.15820312 91.93554688 C-57.67501287 96.99839725 -62.62659758 101.67407845 -67.45703125 106.43652344 C-72.65872966 111.57162328 -77.79123533 116.71349855 -82.51977539 122.29492188 C-84.87467806 125.00754603 -87.4296619 127.49235307 -90 130 C-88.58460657 133.2239517 -86.88585072 135.35666792 -84.375 137.8125 C-83.74335938 138.43769531 -83.11171875 139.06289063 -82.4609375 139.70703125 C-80.40902829 141.61888951 -78.32716787 143.46926779 -76.2109375 145.30859375 C-72.13059493 148.86028399 -68.18053846 152.53408514 -64.25 156.25 C-56.00263912 164.01323907 -47.69569403 171.70218706 -39.25 179.25 C-32.75456883 185.08029902 -26.42084255 191.08375999 -20.0625 197.0625 C-6.82334689 209.49928019 6.45700983 221.89385077 20 234 C17.38756109 239.00150944 13.67199962 242.76718696 9.8125 246.8125 C9.15830078 247.50537109 8.50410156 248.19824219 7.83007812 248.91210938 C6.22404124 250.61192944 4.61396358 252.30771031 3 254 C-0.32552361 253.26999661 -1.76289694 252.5407379 -4.0625 250 C-6.93706874 246.99087697 -9.9393615 244.35225505 -13.1875 241.75 C-17.2692023 238.46677024 -21.16992446 235.06738514 -25 231.5 C-29.5349725 227.28449402 -34.21558352 223.31577054 -39.03515625 219.4296875 C-44.47698335 214.97011377 -49.75334924 210.31704245 -55.05615234 205.69384766 C-58.22042696 202.93653325 -61.39111895 200.18663502 -64.5625 197.4375 C-65.18278076 196.89971924 -65.80306152 196.36193848 -66.44213867 195.80786133 C-72.36421442 190.67735399 -78.31244913 185.57767046 -84.26611328 180.48388672 C-87.17894046 177.99104476 -90.08934061 175.49537234 -93 173 C-94.16665518 171.9999866 -95.33332184 170.99998659 -96.5 170 C-103.5 164 -103.5 164 -105.25097656 162.49902344 C-106.41420412 161.50206403 -107.57761473 160.50531817 -108.74121094 159.50878906 C-111.71205617 156.96401463 -114.67933698 154.41526744 -117.640625 151.859375 C-124.32279971 146.09894152 -131.05357328 140.44190112 -138 135 C-136.45615972 131.31005209 -134.21186057 128.9760549 -131.375 126.1875 C-130.14910156 124.97126953 -130.14910156 124.97126953 -128.8984375 123.73046875 C-126.72078759 121.67901688 -124.52490105 119.71687316 -122.2578125 117.76953125 C-117.43444747 113.57992206 -112.97937592 109.05127601 -108.5 104.5 C-103.49079531 99.41039074 -98.45977219 94.46995399 -93.04101562 89.81835938 C-89.01503106 86.23157312 -85.28078502 82.34147178 -81.5 78.5 C-72.54504103 69.40130172 -72.54504103 69.40130172 -68.125 65.625 C-62.61706174 60.89684961 -57.59432877 55.66354967 -52.5 50.5 C-46.78691312 44.70928463 -41.09822688 38.97404922 -34.90820312 33.68554688 C-31.26641278 30.4686942 -27.90325249 26.96524252 -24.5 23.5 C-19.73728267 18.65053008 -14.92126781 13.9744776 -9.76757812 9.54052734 C-7.58353679 7.63703276 -5.5299656 5.62871499 -3.5 3.5625 C-2.8296875 2.88316406 -2.159375 2.20382812 -1.46875 1.50390625 C-0.74171875 0.75947266 -0.74171875 0.75947266 0 0 Z " fill="#45FAC2" transform="translate(319,366)"/>
<path d="M0 0 C6.75259286 2.12224347 10.79080267 7.58817487 15 13 C15 13.66 15 14.32 15 15 C15.66 15 16.32 15 17 15 C19.125 16.875 19.125 16.875 21 19 C21 19.66 21 20.32 21 21 C21.556875 21.226875 22.11375 21.45375 22.6875 21.6875 C25.66504189 23.37745621 27.63624916 25.5236896 30 28 C30.54527344 28.52464844 31.09054687 29.04929687 31.65234375 29.58984375 C33.13974595 31.02124963 34.57387006 32.50753844 36 34 C36 34.66 36 35.32 36 36 C36.598125 36.28875 37.19625 36.5775 37.8125 36.875 C40 38 40 38 43 40 C43 40.66 43 41.32 43 42 C43.66 42 44.32 42 45 42 C46.36176922 43.64351457 47.68962066 45.31522656 49 47 C49.825 47.804375 50.65 48.60875 51.5 49.4375 C54.14778653 52.15148119 55.99114316 54.80070948 58 58 C56.5484451 59.67257355 55.08855591 61.33791758 53.625 63 C52.81289063 63.928125 52.00078125 64.85625 51.1640625 65.8125 C50.09285156 66.8953125 50.09285156 66.8953125 49 68 C48.34 68 47.68 68 47 68 C46.505 69.485 46.505 69.485 46 71 C45.34 71 44.68 71 44 71 C43.73646729 71.59474121 43.47293457 72.18948242 43.20141602 72.80224609 C41.9481678 75.09481679 40.71297224 76.42799181 38.77734375 78.1640625 C38.15666016 78.72867188 37.53597656 79.29328125 36.89648438 79.875 C36.25001953 80.4525 35.60355469 81.03 34.9375 81.625 C33.65261608 82.78126819 32.36995105 83.94000832 31.08984375 85.1015625 C30.23700806 85.86460693 30.23700806 85.86460693 29.36694336 86.64306641 C27.87907214 87.97542918 27.87907214 87.97542918 27 90 C25.33384401 91.00085064 23.66708441 92.00069656 22 93 C20.29225781 94.41001082 18.63009296 95.87589666 17 97.375 C16.51015625 97.82544678 16.0203125 98.27589355 15.515625 98.73999023 C11.82115458 102.18431422 8.24729306 105.74120419 4.6875 109.32421875 C4.22126221 109.79349792 3.75502441 110.2627771 3.2746582 110.74627686 C0.9115782 113.12729584 -1.44318484 115.51553856 -3.7890625 117.91357422 C-4.66304687 118.79932129 -5.53703125 119.68506836 -6.4375 120.59765625 C-7.21996094 121.39695557 -8.00242187 122.19625488 -8.80859375 123.01977539 C-10.84271499 124.85787224 -12.54235346 125.85838562 -15 127 C-16.7046423 128.62780533 -18.36603941 130.30125683 -20 132 C-21.05946598 133.00977746 -22.12348863 134.01479003 -23.19140625 135.015625 C-31.88006239 143.28938687 -31.88006239 143.28938687 -37 154 C-37.35191406 154.79664063 -37.70382812 155.59328125 -38.06640625 156.4140625 C-40.44638617 163.00630814 -39.35568309 170.55286734 -37 177 C-36.5875 178.134375 -36.175 179.26875 -35.75 180.4375 C-32.88436373 186.27111669 -29.95339389 191.16105764 -24 194 C-23.29875 194.825 -22.5975 195.65 -21.875 196.5 C-17.88434616 199.97013377 -14.10121495 200.23689142 -9 201 C-7.98099609 201.26683594 -7.98099609 201.26683594 -6.94140625 201.5390625 C-2.26187921 202.65009709 2.39669807 202.19344865 7 201 C7.99 201.33 8.98 201.66 10 202 C9.67 202.99 9.34 203.98 9 205 C-1.54236121 206.35839948 -10.00770076 206.19557965 -20 202 C-20.495 201.01 -20.495 201.01 -21 200 C-22.32643192 199.31970552 -23.6609571 198.65512314 -25 198 C-33.96630013 191.44770375 -40.27242301 182.609092 -42.46875 171.6640625 C-44.09705957 159.93283217 -40.94433751 150.48646107 -34 141 C-28.73374184 135.06762288 -22.89276505 129.77049787 -16.8515625 124.63671875 C-14.23694911 122.32548877 -11.8411827 119.82032123 -9.4453125 117.28515625 C-8 116 -8 116 -6 116 C-6 115.34 -6 114.68 -6 114 C-4.6015625 112.625 -4.6015625 112.625 -2.625 111 C0.74795148 108.13954645 3.89673477 105.15130339 7 102 C10.54232199 98.41441301 14.17555661 95.05108338 18.00390625 91.77734375 C20.26132626 89.76731223 22.37735713 87.65167047 24.5 85.5 C27.81046373 82.14434223 31.22820917 79.02942041 34.8125 75.97265625 C38.12895534 72.9819242 41.23016466 69.77848739 44.31982422 66.55517578 C45.51040795 65.33381215 46.75161387 64.16221806 48 63 C48.66 63 49.32 63 50 63 C50 62.34 50 61.68 50 61 C51.29233607 59.62689293 52.62437146 58.28965176 54 57 C53.33355469 56.34402832 52.66710937 55.68805664 51.98046875 55.01220703 C49.51650471 52.58227326 47.0570658 50.14793959 44.60058594 47.71044922 C43.5353174 46.65525491 42.46826303 45.60186036 41.39941406 44.55029297 C39.86573784 43.04080273 38.33854432 41.52501301 36.8125 40.0078125 C35.89082031 39.09660645 34.96914063 38.18540039 34.01953125 37.24658203 C32 35 32 35 32 33 C31.34 33 30.68 33 30 33 C30 32.34 30 31.68 30 31 C29.44828125 30.773125 28.8965625 30.54625 28.328125 30.3125 C25.31307583 28.61274074 23.18769631 26.45195184 20.75 24 C19.85796875 23.113125 18.9659375 22.22625 18.046875 21.3125 C16 19 16 19 16 17 C15.46890625 16.79246094 14.9378125 16.58492188 14.390625 16.37109375 C11.00278724 14.42806915 8.49082014 11.8197126 5.75 9.0625 C5.19570313 8.52431641 4.64140625 7.98613281 4.0703125 7.43164062 C2.65116761 6.01424346 1.31858496 4.51139692 0 3 C0 2.01 0 1.02 0 0 Z " fill="#040E10" transform="translate(677,438)"/>
<path d="M0 0 C3.1705127 0.5834087 4.85649897 1.46910092 7.171875 3.6953125 C7.74969727 4.2428418 8.32751953 4.79037109 8.92285156 5.35449219 C9.52581055 5.93875977 10.12876953 6.52302734 10.75 7.125 C12.00965198 8.32111832 13.27006268 9.51643815 14.53125 10.7109375 C15.13324219 11.28424805 15.73523438 11.85755859 16.35546875 12.44824219 C18.86582699 14.81698283 21.46604533 17.0732528 24.078125 19.328125 C26.41105074 21.35758073 28.70511245 23.427647 31 25.5 C36.34237419 30.31623128 41.7179687 35.08442075 47.22265625 39.71484375 C72.07179193 60.66822755 72.07179193 60.66822755 73.328125 71.9453125 C73.65445622 81.24575235 71.99563888 86.95714597 65.9375 94 C62.15142256 98.00520733 58.15034753 101.46323768 53.78515625 104.81640625 C50.51379216 107.3811924 47.38669654 110.08617998 44.25 112.8125 C38.92415184 117.42434936 33.46692566 121.82048068 27.89941406 126.13598633 C24.66267537 128.65664451 21.53723035 131.23786076 18.5 134 C14.90264487 137.27153184 11.15273425 140.27339922 7.3125 143.25 C2.42399485 147.0404392 -2.33024132 150.9432168 -7 155 C-11.56997093 158.96833997 -16.21502448 162.79371452 -21 166.5 C-26.48602938 170.74990358 -31.77855144 175.18215871 -37.0246582 179.72387695 C-41.13325882 183.27561514 -45.31783229 186.7088739 -49.578125 190.078125 C-52.21855157 192.17343124 -54.82998023 194.30139624 -57.4375 196.4375 C-58.80841797 197.55898438 -58.80841797 197.55898438 -60.20703125 198.703125 C-62.08545935 200.24790223 -63.95777805 201.80013546 -65.82421875 203.359375 C-78.64499201 214.01653101 -78.64499201 214.01653101 -83 216 C-85.25390625 215.6484375 -85.25390625 215.6484375 -87 215 C-83.25 212 -83.25 212 -81 212 C-80.979375 211.401875 -80.95875 210.80375 -80.9375 210.1875 C-80 208 -80 208 -76.9375 206.6875 C-76.31359375 206.45804688 -75.6896875 206.22859375 -75.046875 205.9921875 C-71.76047001 204.39915913 -69.33000628 201.92218671 -66.69921875 199.42578125 C-65 198 -65 198 -63 198 C-63 197.34 -63 196.68 -63 196 C-61.02053408 194.63636792 -59.0180755 193.30581356 -57 192 C-55.38756709 190.50700657 -53.95926099 188.95416861 -52.5 187.3125 C-51 186 -51 186 -48 186 C-48 185.34 -48 184.68 -48 184 C-45.953125 182.4140625 -45.953125 182.4140625 -43.25 180.625 C-39.7813311 178.32269638 -36.88811761 175.99399565 -34 173 C-32.69764998 171.84264322 -31.38516374 170.69658594 -30.0625 169.5625 C-27.64718792 167.47552644 -25.33223552 165.36798043 -23.125 163.0625 C-21 161 -21 161 -19 161 C-19 160.34 -19 159.68 -19 159 C-17.35 158.67 -15.7 158.34 -14 158 C-14 157.34 -14 156.68 -14 156 C-12.34467377 154.98133771 -10.67739862 153.98189187 -9 153 C-8.67 152.34 -8.34 151.68 -8 151 C-7.34 151 -6.68 151 -6 151 C-6 150.34 -6 149.68 -6 149 C-3.35153397 146.63785462 -1.38483604 145.12827868 2 144 C3.48979076 142.2010904 3.48979076 142.2010904 4.875 140.0625 C7.30235607 136.70016233 8.87659327 135.05728378 13 134 C15.7193293 133.21297649 15.7193293 133.21297649 18 132 C18.165 131.34 18.33 130.68 18.5 130 C18.665 129.34 18.83 128.68 19 128 C20.66072849 127.31867549 22.327767 126.65257873 24 126 C24.309375 125.38125 24.61875 124.7625 24.9375 124.125 C26.53462139 120.93075723 28.95655015 119.7391142 32 118 C32.99 118 33.98 118 35 118 C35 117.34 35 116.68 35 116 C35.66 116 36.32 116 37 116 C37.495 114.515 37.495 114.515 38 113 C41.29564068 109.32771467 44.77040707 106.53775576 49 104 C49.66 104 50.32 104 51 104 C51 103.34 51 102.68 51 102 C52.99284138 100.6559907 54.99419671 99.32458708 57 98 C58.68615782 96.35305515 60.35570171 94.68873879 62 93 C62.99 92.34 63.98 91.68 65 91 C66.18275834 89.19148678 66.18275834 89.19148678 67.125 87.125 C67.45757813 86.44695312 67.79015625 85.76890625 68.1328125 85.0703125 C70.96358569 78.31216029 70.50829749 71.52271461 68.30859375 64.62890625 C65.20467412 58.39327069 59.53015587 53.68677058 53.8125 49.875 C50.47361615 47.64907743 48.30281548 45.01418193 45.73046875 41.96484375 C42.90904644 38.76128749 39.8635705 35.8470775 35.9375 34.0625 C33.80701194 32.89416784 32.92375571 31.77263006 31.4375 29.875 C30.633125 28.92625 29.82875 27.9775 29 27 C28.01 27 27.02 27 26 27 C24.74609375 25.56640625 24.74609375 25.56640625 23.4375 23.5625 C20.23888368 19.04586088 16.43607381 15.59659248 12.26953125 11.98046875 C10 10 10 10 8.38671875 8.30078125 C6.91622666 6.73963174 6.91622666 6.73963174 4 6 C2.60287726 4.04402816 1.26220093 2.04563599 0 0 Z " fill="#040B0E" transform="translate(776,424)"/>
<path d="M0 0 C1.08990234 -0.01224609 2.17980469 -0.02449219 3.30273438 -0.03710938 C14.3143597 -0.05673794 26.34334634 0.22718299 34.96484375 7.875 C40.87956666 14.077331 44.5165024 21.24534404 44.31469727 29.94628906 C43.8195314 34.34669823 42.2846364 38.4069847 40.8125 42.5625 C40.46695068 43.56821045 40.12140137 44.5739209 39.76538086 45.61010742 C38.77320423 48.48362091 37.76859377 51.35240794 36.7567749 54.21905518 C36.00950081 56.33776609 35.26548531 58.457603 34.52197266 60.57763672 C31.63131945 68.81651719 28.72725183 77.05053872 25.80097961 85.27684021 C24.8661199 87.90721754 23.94530839 90.53907483 23.0625 93.1875 C21 93.875 21 93.875 19.0625 94.1875 C19.80500597 90.10371717 20.89173301 86.16810777 22.0625 82.1875 C22.7225 82.1875 23.3825 82.1875 24.0625 82.1875 C24.16046875 81.58164062 24.2584375 80.97578125 24.359375 80.3515625 C25.33463066 74.88676785 26.80992274 70.09112168 28.9765625 64.9921875 C31.09144112 59.53001898 32.53233659 53.83608195 34.0625 48.1875 C34.7225 48.1875 35.3825 48.1875 36.0625 48.1875 C36.165625 47.218125 36.26875 46.24875 36.375 45.25 C36.78215177 42.26821205 37.56410617 39.6873695 38.625 36.875 C40.93860947 30.12888129 41.0590523 23.96807684 38.375 17.3125 C36.56169538 13.62739707 34.4608131 11.54743966 31.0625 9.1875 C31.0625 8.5275 31.0625 7.8675 31.0625 7.1875 C30.4025 7.06375 29.7425 6.94 29.0625 6.8125 C26.83431517 6.34829483 24.62641553 5.78445301 22.43505859 5.16943359 C17.96236789 4.04950884 13.69628652 3.86466606 9.1015625 3.8515625 C7.85564835 3.8415773 7.85564835 3.8415773 6.58456421 3.83139038 C4.83829949 3.82132717 3.09199681 3.81657138 1.34570312 3.81689453 C-1.29883306 3.81252259 -3.94169572 3.77614042 -6.5859375 3.73828125 C-16.50134293 3.67071929 -25.30035765 3.64345737 -33.375 10.15234375 C-36.75647893 14.4214609 -39.39875821 17.95504926 -40.3125 23.4375 C-41.0874963 26.84748374 -42.50836161 29.76483153 -43.96484375 32.93359375 C-45.26201182 35.93948119 -46.05328018 39.0374669 -46.9375 42.1875 C-48.2115937 45.54557642 -49.56230899 48.8696848 -50.9375 52.1875 C-51.5975 52.1875 -52.2575 52.1875 -52.9375 52.1875 C-52.44370975 44.51475921 -49.881706 37.84349802 -47.1875 30.6875 C-46.75695312 29.50285156 -46.32640625 28.31820313 -45.8828125 27.09765625 C-41.86883267 16.31759665 -38.09651598 8.11794015 -27.75 2.4375 C-19.26614979 -0.86177508 -8.94633185 0.00527185 0 0 Z " fill="#050C0E" transform="translate(565.9375,279.8125)"/>
<path d="M0 0 C0.33 0 0.66 0 1 0 C0.53808284 8.68019332 -2.23484388 16.46702558 -5 24.625 C-5.70051637 26.70236001 -6.39822492 28.78051072 -7.08886719 30.86117554 C-7.71419582 32.74377148 -8.34900093 34.623212 -8.984375 36.50244141 C-10.00137871 40.00474795 -10.5741789 43.38225637 -11 47 C-11.66 47 -12.32 47 -13 47 C-13.04125 47.66 -13.0825 48.32 -13.125 49 C-15.20340808 56.12597055 -20.63699571 61.44629052 -27 65 C-33.48469564 67.8248659 -39.50584342 68.46721798 -46.51953125 68.46875 C-47.49935471 68.47636353 -48.47917816 68.48397705 -49.48869324 68.49182129 C-51.55013498 68.50256624 -53.61163091 68.50549838 -55.6730957 68.50097656 C-58.79407457 68.50000573 -61.91257903 68.54166286 -65.03320312 68.5859375 C-77.31505447 68.65900063 -87.27925531 68.17534821 -97.5 60.625 C-100.50364247 57.4711754 -104 53.57442876 -104 49 C-104.66 48.67 -105.32 48.34 -106 48 C-106.08174796 45.16607074 -106.14084985 42.33455181 -106.1875 39.5 C-106.21263672 38.70851563 -106.23777344 37.91703125 -106.26367188 37.1015625 C-106.33402262 31.37970167 -105.46403043 27.19226924 -103 22 C-102.01 21.34 -101.02 20.68 -100 20 C-100.41242268 23.43685564 -100.83593142 26.55921874 -102.046875 29.8125 C-104.06857249 36.5735867 -103.25504221 45.01339172 -100.4375 51.5 C-98.29096479 55.20476077 -95.23325274 57.43134604 -91.70703125 59.7734375 C-90 61 -90 61 -89 63 C-86.54858114 63.43208654 -86.54858114 63.43208654 -83.6875 63.5625 C-78.29435233 63.91532275 -78.29435233 63.91532275 -76.23730469 64.50708008 C-73.27364083 65.16003046 -70.47570676 65.1298676 -67.44140625 65.1328125 C-65.53198242 65.13474609 -65.53198242 65.13474609 -63.58398438 65.13671875 C-62.59338013 65.13357666 -62.59338013 65.13357666 -61.58276367 65.13037109 C-59.5726768 65.12502706 -57.56281426 65.13032271 -55.55273438 65.13671875 C-54.27849609 65.13542969 -53.00425781 65.13414062 -51.69140625 65.1328125 C-50.52810791 65.13168457 -49.36480957 65.13055664 -48.16625977 65.12939453 C-45.31457732 65.01285573 -42.7812049 64.59131057 -40 64 C-39.071875 64.061875 -38.14375 64.12375 -37.1875 64.1875 C-32.80598804 63.929764 -29.78060214 62.09693317 -26 60 C-24.66945989 59.3277759 -23.33687928 58.65952711 -22 58 C-22 57.34 -22 56.68 -22 56 C-21.401875 55.46375 -20.80375 54.9275 -20.1875 54.375 C-17.31034397 51.25123059 -16.29718616 47.95731446 -15 44 C-14.60683594 42.87851562 -14.21367187 41.75703125 -13.80859375 40.6015625 C-11.27409784 33.30771908 -9.1970454 26.09937367 -7.67578125 18.51171875 C-7 16 -7 16 -5 14 C-4.43139494 11.96912993 -4.43139494 11.96912993 -4.0625 9.6875 C-3.30202559 5.94548304 -2.31043887 3.11406978 0 0 Z " fill="#050B0E" transform="translate(498,635)"/>
<path d="M0 0 C2.475 0.99 2.475 0.99 5 2 C5 2.66 5 3.32 5 4 C5.5671875 4.25910156 6.134375 4.51820313 6.71875 4.78515625 C9.21881232 6.11652505 11.28512532 7.67394396 13.5 9.4375 C15.73488695 11.20933674 17.94475404 12.96130891 20.28125 14.59765625 C20.8484375 15.06042969 21.415625 15.52320313 22 16 C22 16.66 22 17.32 22 18 C22.7425 18.268125 23.485 18.53625 24.25 18.8125 C26.89061949 19.95276751 28.85552844 21.09380306 31 23 C31 23.66 31 24.32 31 25 C31.556875 25.2475 32.11375 25.495 32.6875 25.75 C38.60664359 28.94953708 43.61596394 34.04981472 48.67578125 38.4609375 C51.11931583 40.55886049 52.91069108 41.97023036 56 43 C56.4125 43.45375 56.825 43.9075 57.25 44.375 C63.40895249 50.09402731 72.24130508 50.27767364 80.17578125 50.234375 C83.76165876 49.9367918 86.79522595 48.97836617 90.125 47.65625 C92 47 92 47 95 47 C95 46.34 95 45.68 95 45 C95.825 44.690625 96.65 44.38125 97.5 44.0625 C104.26379125 40.61649261 108.79555759 34.36259399 111.375 27.375 C111.93329814 25.58844594 112.47674983 23.79713146 113 22 C113.433125 20.80375 113.86625 19.6075 114.3125 18.375 C115.19339189 14.05062161 114.72458861 10.31815647 114 6 C115.32 6.33 116.64 6.66 118 7 C118.7192667 18.26851165 117.00073816 28.32793774 109.6171875 37.19921875 C109.08351563 37.79347656 108.54984375 38.38773438 108 39 C107.48695313 39.60457031 106.97390625 40.20914063 106.4453125 40.83203125 C98.08192291 50.01575331 88.15272691 53.15585849 76 54 C74.91332031 53.99226562 73.82664062 53.98453125 72.70703125 53.9765625 C70.03089149 53.80144877 70.03089149 53.80144877 68 55 C67.505 54.5875 67.01 54.175 66.5 53.75 C63.92810723 51.83683148 63.92810723 51.83683148 60.4375 50.375 C55.22338707 47.82056302 51.06430928 44.13319929 46.66015625 40.39501953 C43.47610182 37.71947733 40.23279716 35.1162308 37 32.5 C31.52025428 28.05215862 26.04854006 23.59476215 20.58984375 19.12109375 C18.77142439 17.63180007 16.95092729 16.14504142 15.12890625 14.66015625 C12.4141013 12.44631938 9.70578347 10.22484824 7 8 C6.25878906 7.39671875 5.51757812 6.7934375 4.75390625 6.171875 C3.13079467 4.82635796 1.55844385 3.41991551 0 2 C0 1.34 0 0.68 0 0 Z " fill="#050C0E" transform="translate(246,590)"/>
<path d="M0 0 C0.66 0.33 1.32 0.66 2 1 C0.7251997 4.6863273 -0.64654959 7.00491615 -3.44921875 9.70703125 C-4.13306641 10.37669922 -4.81691406 11.04636719 -5.52148438 11.73632812 C-6.23626953 12.42146484 -6.95105469 13.10660156 -7.6875 13.8125 C-11.90783781 17.89985219 -16.10112564 22.00127357 -20.08203125 26.32421875 C-20.66831299 26.95803467 -21.25459473 27.59185059 -21.85864258 28.24487305 C-22.23529053 28.82406494 -22.61193848 29.40325684 -23 30 C-21.89513102 33.31460693 -21.12376914 33.96976106 -18.5 36.125 C-15.34893765 38.79214921 -12.39410589 41.55564922 -9.5 44.5 C-6.11758601 47.9288279 -2.61929558 51.12048518 1.03515625 54.25390625 C3.81561832 56.72481389 6.39118218 59.3816694 9 62.03125 C10.93891002 63.93986455 12.93699551 65.72710552 15 67.5 C17.78896393 69.89676588 20.41990785 72.37959391 23 75 C26.13200417 78.1744926 29.38014586 81.12956552 32.75390625 84.04296875 C42.23201574 92.30128676 51.17810762 101.05004789 60 110 C59.34 110.66 58.68 111.32 58 112 C50.2564186 105.50538334 50.2564186 105.50538334 47.3125 101.75 C45.21228072 98.94323307 45.21228072 98.94323307 42.5625 97.5625 C39.46358433 95.67291728 37.70893832 93.38791347 35.52734375 90.5234375 C33.72091924 88.721633 32.43112044 88.5788382 30 88 C29.62875 87.154375 29.2575 86.30875 28.875 85.4375 C26.47956209 81.04586383 23.36505283 78.88281563 19.4296875 75.8828125 C16.72088972 73.78371197 14.38760292 71.45392522 12 69 C11.01 68.195625 10.02 67.39125 9 66.5625 C5.92765158 63.93820239 3.57487128 61.10305001 1 58 C-0.64639965 56.64172029 -2.31295807 55.30745749 -4 54 C-5.66666667 52.33333333 -7.33333333 50.66666667 -9 49 C-10.03234078 48.11401639 -11.07419058 47.23899885 -12.125 46.375 C-14.21913913 44.64505898 -16.08939221 42.91060779 -18 41 C-18.66 40.67 -19.32 40.34 -20 40 C-20.474375 39.175 -20.94875 38.35 -21.4375 37.5 C-22.81319541 34.70844517 -22.81319541 34.70844517 -26 34 C-26.33 32.02 -26.66 30.04 -27 28 C-26.34 28 -25.68 28 -25 28 C-24.34 26.68 -23.68 25.36 -23 24 C-22.01 24 -21.02 24 -20 24 C-19.95875 23.443125 -19.9175 22.88625 -19.875 22.3125 C-18.55598589 18.82653414 -15.86969787 17.28404524 -13 15 C-12.34 14.01 -11.68 13.02 -11 12 C-10.34 12 -9.68 12 -9 12 C-8.773125 11.2575 -8.54625 10.515 -8.3125 9.75 C-6.74509959 6.46592295 -4.88172206 5.16129155 -2 3 C-1.34 2.01 -0.68 1.02 0 0 Z " fill="#030E0F" transform="translate(290,464)"/>
<path d="M0 0 C0.99 0.495 0.99 0.495 2 1 C2.67004916 12.16748592 3.16365841 21.72382947 -4 31 C-7.82377446 35.23863308 -11.8837119 39.21733546 -16.02734375 43.140625 C-19.38293729 46.33068136 -22.43121389 49.69714455 -25.44360352 53.20996094 C-27.36184248 55.41616143 -29.40221056 57.46483114 -31.5 59.5 C-34.16269628 62.12707492 -36.7126475 64.76729011 -39.125 67.625 C-43.40372407 72.63547735 -48.14799665 77.19661664 -52.84619141 81.80908203 C-53.48089355 82.43540527 -54.1155957 83.06172852 -54.76953125 83.70703125 C-55.34292236 84.2688208 -55.91631348 84.83061035 -56.50708008 85.40942383 C-58.20957915 87.13564277 -58.20957915 87.13564277 -60 90 C-60.99 90 -61.98 90 -63 90 C-61.78694805 84.99616071 -58.65776285 82.78446893 -54.77734375 79.74609375 C-52.79206275 77.79571879 -52.53155012 76.66340538 -52 74 C-51.401875 73.71125 -50.80375 73.4225 -50.1875 73.125 C-47.70417283 72.07400498 -47.70417283 72.07400498 -46.0625 69.0625 C-43.87114863 65.80867524 -42.30950579 64.93727168 -39 63 C-37.31267723 61.01739574 -35.64633943 59.0167658 -34 57 C-33.0925 56.278125 -32.185 55.55625 -31.25 54.8125 C-28.7418365 53.12619585 -28.7418365 53.12619585 -28 50 C-26.4765625 48.5703125 -26.4765625 48.5703125 -24.625 47.125 C-21.62707519 44.66328938 -19.94918123 42.36676758 -18 39 C-13.56756757 35 -13.56756757 35 -11 35 C-10.86271484 34.15308594 -10.86271484 34.15308594 -10.72265625 33.2890625 C-9.81664857 30.41922197 -8.3515365 28.68731076 -6.4375 26.375 C-3.79174619 23.5393198 -3.79174619 23.5393198 -3 20 C-2.34 20 -1.68 20 -1 20 C-1 17.36 -1 14.72 -1 12 C-0.34 12 0.32 12 1 12 C0.7525 10.9790625 0.7525 10.9790625 0.5 9.9375 C-0.07089059 6.5835178 -0.06659023 3.39610195 0 0 Z " fill="#030C0F" transform="translate(356,374)"/>
<path d="M0 0 C0 0.99 0 1.98 0 3 C-0.96679688 3.02578125 -1.93359375 3.0515625 -2.9296875 3.078125 C-15.92606071 3.64430364 -23.3942786 5.70806384 -32.45703125 15.375 C-34.88938613 17.88581794 -37.38362305 20.02390205 -40.125 22.1875 C-45.74947386 26.67587814 -50.95574943 31.54913575 -56.16650391 36.50854492 C-58.10232653 38.34857577 -60.04705478 40.17815415 -62 42 C-62.71365723 42.66612305 -63.42731445 43.33224609 -64.16259766 44.01855469 C-64.86819824 44.65954102 -65.57379883 45.30052734 -66.30078125 45.9609375 C-66.93798096 46.54407715 -67.57518066 47.1272168 -68.23168945 47.72802734 C-70 49 -70 49 -73 49 C-64.37712529 39.53681516 -55.56322921 30.51360649 -46 22 C-45.29617188 21.36964844 -44.59234375 20.73929687 -43.8671875 20.08984375 C-42.63626304 19.00055286 -41.39679469 17.92083047 -40.1484375 16.8515625 C-38.40223723 15.34665536 -36.68738272 13.81791336 -34.9765625 12.2734375 C-23.65042399 2.17265125 -15.31916063 -0.73531971 0 0 Z " fill="#040C0F" transform="translate(328,342)"/>
<path d="M0 0 C4.16875613 0.52596456 6.26819527 2.80506467 9.25 5.625 C10.23251337 6.54356762 11.21558915 7.46153402 12.19921875 8.37890625 C13.12347656 9.24386719 14.04773438 10.10882813 15 11 C16.34736907 12.19520717 17.70070445 13.3837564 19.0625 14.5625 C21.94900102 17.06996553 24.79332584 19.61827369 27.625 22.1875 C35.73716333 29.50092725 43.99047109 36.66674691 52.5625 43.4375 C55.94358563 46.11488001 59.02447007 48.86786324 62 52 C67.13147133 57.25444777 72.40616505 62.2392894 78 67 C77.34 67.66 76.68 68.32 76 69 C74.49410612 67.71520959 72.99542625 66.42195918 71.5 65.125 C70.6646875 64.40570313 69.829375 63.68640625 68.96875 62.9453125 C67.99421875 61.98238281 67.99421875 61.98238281 67 61 C67 60.34 67 59.68 67 59 C66.29875 58.773125 65.5975 58.54625 64.875 58.3125 C58.38198756 55.34829867 53.60595615 49.6904496 48.7109375 44.63671875 C45.10341949 41.12796564 41.18352819 38.09537553 37.23046875 34.98828125 C36.49441406 34.33214844 35.75835938 33.67601562 35 33 C35 32.34 35 31.68 35 31 C34.2575 30.773125 33.515 30.54625 32.75 30.3125 C29.46800133 28.74609154 28.2047226 26.84480335 26 24 C25.34 23.67 24.68 23.34 24 23 C22 22 22 22 20.125 19.625 C18.09024811 16.84516675 18.09024811 16.84516675 15 15 C11.92894432 12.95262955 10.26484838 10.86880794 8 8 C7.34 7.690625 6.68 7.38125 6 7.0625 C2.97358922 5.45471927 1.74706049 2.8701708 0 0 Z " fill="#030B0D" transform="translate(698,355)"/>
<path d="M0 0 C4.23467144 2.50067738 7.85118731 5.52257727 11.4375 8.875 C10.7775 10.195 10.1175 11.515 9.4375 12.875 C8.8496875 11.7303125 8.8496875 11.7303125 8.25 10.5625 C5.05060109 5.81856368 0.74844202 4.50079858 -4.5625 2.875 C-5.42875 2.483125 -6.295 2.09125 -7.1875 1.6875 C-15.58811827 -0.33487107 -24.23097053 1.44494455 -31.5625 5.875 C-40.14341871 11.82514322 -45.43622389 20.04956081 -48.5625 29.875 C-49.2225 29.875 -49.8825 29.875 -50.5625 29.875 C-50.40062578 21.29566653 -46.3637399 15.06107617 -40.671875 8.79296875 C-30.14574708 -1.0271384 -13.6556386 -6.57493711 0 0 Z " fill="#040B0F" transform="translate(686.5625,344.125)"/>
<path d="M0 0 C0.99 0.33 1.98 0.66 3 1 C2.2479126 1.74685059 1.4958252 2.49370117 0.72094727 3.26318359 C-2.06396642 6.03002167 -4.84558933 8.8001479 -7.6262207 11.57128906 C-8.83105129 12.77108532 -10.03677712 13.96998326 -11.2434082 15.16796875 C-12.97582352 16.88827923 -14.7050127 18.61177544 -16.43359375 20.3359375 C-17.24611855 21.14072037 -17.24611855 21.14072037 -18.07505798 21.96176147 C-20.88748186 24.71555017 -20.88748186 24.71555017 -23 28 C-24.66279327 29.0064275 -26.32983484 30.00585407 -28 31 C-29.01243807 31.98740526 -30.01107591 32.98904543 -31 34 C-32.28408393 35.13364732 -33.57625431 36.25817978 -34.875 37.375 C-37.20992274 39.40314457 -39.43581617 41.43581617 -41.625 43.625 C-44.28638002 46.28638002 -47.08208747 48.62495491 -50 51 C-50 47.79206991 -49.64184215 46.68150395 -48 44 C-46.16015625 42.18359375 -46.16015625 42.18359375 -44.0625 40.4375 C-41.11693957 37.96809867 -41.11693957 37.96809867 -38.37109375 35.28515625 C-37 34 -37 34 -35 34 C-35 33.34 -35 32.68 -35 32 C-33.55981445 30.56347656 -33.55981445 30.56347656 -31.55078125 28.890625 C-26.95695295 24.9839986 -22.56716008 20.89386196 -18.1875 16.75 C-17.06311523 15.69039063 -17.06311523 15.69039063 -15.91601562 14.609375 C-12.07587941 11.02206466 -12.07587941 11.02206466 -8.3918457 7.27832031 C-7 6 -7 6 -5 6 C-5 5.34 -5 4.68 -5 4 C-2.6875 1.8125 -2.6875 1.8125 0 0 Z " fill="#02080D" transform="translate(213,428)"/>
<path d="M0 0 C5.96808488 2.62595735 10.99295496 6.88709996 15.86328125 11.14453125 C19.21360018 14.05385756 22.62291377 16.8938077 26.02099609 19.74707031 C29.52037982 22.7012129 32.90308773 25.7473862 36.25 28.875 C39.97655134 32.29151199 43.68005929 34.60348896 48.16796875 36.8828125 C50.69407464 38.42325234 51.643029 40.4217551 53 43 C54.64605826 44.03357147 56.30963442 45.04060332 58 46 C58 46.66 58 47.32 58 48 C59.2065625 48.433125 59.2065625 48.433125 60.4375 48.875 C63 50 63 50 64 52 C63.01 52.33 62.02 52.66 61 53 C58.855045 51.44612635 56.95795757 49.89098974 55 48.125 C53.8262255 47.09815229 52.65173538 46.07212205 51.4765625 45.046875 C50.89036133 44.53060547 50.30416016 44.01433594 49.70019531 43.48242188 C47.30246919 41.39181403 44.84357009 39.38115783 42.375 37.375 C41.48296875 36.64796875 40.5909375 35.9209375 39.671875 35.171875 C38.34929687 34.09679687 38.34929687 34.09679687 37 33 C30.56217433 27.76691364 24.17289893 22.48535996 17.8605957 17.10180664 C15.20408338 14.84156305 12.53232156 12.61064488 9.80078125 10.44140625 C8.81464844 9.65636719 7.82851562 8.87132812 6.8125 8.0625 C5.93207031 7.37285156 5.05164063 6.68320312 4.14453125 5.97265625 C2.06098705 4.0560992 1.04236939 2.60301183 0 0 Z " fill="#040B0E" transform="translate(182,537)"/>
<path d="M0 0 C0.66 0 1.32 0 2 0 C1.52720846 6.93427599 -1.24803023 12.68571367 -4 19 C-4.75847187 20.82984467 -5.50920187 22.66292917 -6.25 24.5 C-6.56453125 25.2734375 -6.8790625 26.046875 -7.203125 26.84375 C-8.02040104 28.93187034 -8.02040104 28.93187034 -8.46606445 30.88671875 C-9.37998945 34.50397288 -10.69335274 37.98535858 -11.9375 41.5 C-12.20240234 42.25925781 -12.46730469 43.01851563 -12.74023438 43.80078125 C-12.99998047 44.53683594 -13.25972656 45.27289063 -13.52734375 46.03125 C-13.76187256 46.69705078 -13.99640137 47.36285156 -14.23803711 48.04882812 C-15 50 -15 50 -16.03344727 52.04492188 C-17.44737127 54.90491264 -18.13109991 57.93329381 -19 61 C-19.95493874 63.68605923 -20.97334558 66.34003172 -22 69 C-22.66 69 -23.32 69 -24 69 C-23.46239331 62.43375678 -21.73972883 56.90733879 -19.40234375 50.76953125 C-18.87176109 49.33935921 -18.87176109 49.33935921 -18.33045959 47.8802948 C-17.20761147 44.85458685 -16.07388783 41.83314659 -14.9375 38.8125 C-13.43729672 34.82240898 -11.94795725 30.82850104 -10.46484375 26.83203125 C-9.94457863 25.46471611 -9.94457863 25.46471611 -9.4138031 24.06977844 C-9.09669876 23.21506454 -8.77959442 22.36035065 -8.45288086 21.47973633 C-8.17165878 20.73331375 -7.89043671 19.98689117 -7.60069275 19.21784973 C-6.92923037 16.73870768 -6.99381672 14.55611984 -7 12 C-5.63671875 10.48046875 -5.63671875 10.48046875 -4 9 C-2.7951851 6.73972655 -2.7951851 6.73972655 -1.8125 4.3125 C-1.46832031 3.50425781 -1.12414062 2.69601562 -0.76953125 1.86328125 C-0.51558594 1.24839844 -0.26164062 0.63351562 0 0 Z " fill="#050E11" transform="translate(511,334)"/>
<path d="M0 0 C1.6458097 4.01945261 0.19435938 7.20620508 -1.2109375 11.0625 C-1.45464081 11.75872971 -1.69834412 12.45495941 -1.94943237 13.17228699 C-2.47529206 14.67158511 -3.0058675 16.16923587 -3.54064941 17.66537476 C-4.9464554 21.59900913 -6.31870813 25.54435394 -7.6953125 29.48828125 C-7.97427368 30.28446365 -8.25323486 31.08064606 -8.54064941 31.9009552 C-11.23831763 39.62290784 -13.76775055 47.39403449 -16.25 55.1875 C-16.6320459 56.38568359 -17.0140918 57.58386719 -17.40771484 58.81835938 C-18.27476647 61.54465155 -19.139174 64.27173696 -20 67 C-20.99 66.67 -21.98 66.34 -23 66 C-22.30128229 63.12070932 -21.51073327 60.28330954 -20.66015625 57.4453125 C-20.40169922 56.58292969 -20.14324219 55.72054687 -19.87695312 54.83203125 C-19.60818359 53.93871094 -19.33941406 53.04539062 -19.0625 52.125 C-18.79759766 51.23941406 -18.53269531 50.35382812 -18.25976562 49.44140625 C-16.90693591 44.93644973 -15.52070969 40.45193273 -14 36 C-13.34 36 -12.68 36 -12 36 C-11.85884766 34.35064453 -11.85884766 34.35064453 -11.71484375 32.66796875 C-11.04369908 27.31178603 -9.32590125 22.39439975 -7.5625 17.3125 C-7.09360352 15.92708008 -7.09360352 15.92708008 -6.61523438 14.51367188 C-2.5366744 2.5366744 -2.5366744 2.5366744 0 0 Z " fill="#040D10" transform="translate(550,478)"/>
<path d="M0 0 C0.99 0.33 1.98 0.66 3 1 C2.01 1.495 2.01 1.495 1 2 C-0.03432904 3.98246398 -1.03238392 5.98413316 -2 8 C-2.99 9.485 -2.99 9.485 -4 11 C-5.71901255 18.04407399 -4.91772309 24.40038825 -2 31 C-1.04389261 32.3651507 -0.04609557 33.70251712 1 35 C1.639375 35.86625 2.27875 36.7325 2.9375 37.625 C4.90645013 39.89227591 6.24479736 40.91759896 9 42 C9 42.66 9 43.32 9 44 C9.56460938 44.2475 10.12921875 44.495 10.7109375 44.75 C13.37661633 46.20566079 15.37972787 47.95747819 17.625 50 C18.78902344 51.051875 18.78902344 51.051875 19.9765625 52.125 C21.34234404 53.39058907 22.6833613 54.6833613 24 56 C19.02235986 56 17.25987931 54.08196862 13.75 50.9375 C13.17515869 50.43524902 12.60031738 49.93299805 12.00805664 49.41552734 C10.8594966 48.41067844 9.71431828 47.4019495 8.57275391 46.38916016 C7.23296302 45.20576833 5.87422399 44.04388568 4.51171875 42.88671875 C-2.03941101 37.32257653 -7.29639785 31.8506048 -8.359375 23.01171875 C-8.68833269 15.23552457 -7.42464135 9.45623724 -3 3 C-2.0311019 1.96983668 -1.04033788 0.95796508 0 0 Z " fill="#040A0D" transform="translate(158,480)"/>
<path d="M0 0 C0.33 0 0.66 0 1 0 C1.19335938 0.66386719 1.38671875 1.32773437 1.5859375 2.01171875 C3.39171768 8.66174865 3.39171768 8.66174865 6 15 C6.99 15.33 7.98 15.66 9 16 C10.1875 18.5625 10.1875 18.5625 11 21 C11.99 21 12.98 21 14 21 C15.04892238 22.63631892 16.04906703 24.30485863 17 26 C17.66 26.33 18.32 26.66 19 27 C19 27.66 19 28.32 19 29 C19.66 29 20.32 29 21 29 C22.35386936 30.65002828 23.68678142 32.3174387 25 34 C25.66 34.33 26.32 34.66 27 35 C27 35.66 27 36.32 27 37 C27.66 37 28.32 37 29 37 C30.40234375 38.4609375 30.40234375 38.4609375 31.9375 40.375 C33.91986617 42.83901524 35.30699655 44.20466437 38 46 C38 46.66 38 47.32 38 48 C35.83125748 47.49396008 34.00032373 47.00016187 32 46 C32 45.34 32 44.68 32 44 C31.34 44 30.68 44 30 44 C30 43.34 30 42.68 30 42 C29.34 42 28.68 42 28 42 C26.80078125 40.77734375 26.80078125 40.77734375 25.3125 38.9375 C20.99320904 33.82375171 16.22497861 29.19569301 11.41918945 24.54467773 C5.47345787 18.70767685 -0.68503402 12.45941024 -1.1875 3.75 C-1 1 -1 1 0 0 Z " fill="#040C0E" transform="translate(637,387)"/>
<path d="M0 0 C1.11175532 3.33526597 0.93289024 3.92752806 -0.17163086 7.10424805 C-0.45199692 7.92487228 -0.73236298 8.74549652 -1.02122498 9.59098816 C-1.33261917 10.47232925 -1.64401337 11.35367035 -1.96484375 12.26171875 C-2.27700333 13.16751175 -2.5891629 14.07330475 -2.91078186 15.00654602 C-3.91123101 17.90320748 -4.9241919 20.79531483 -5.9375 23.6875 C-6.61736406 25.64880186 -7.29641097 27.61038718 -7.97460938 29.57226562 C-9.63875564 34.38545734 -11.31973808 39.19228965 -13 44 C-22.57 44 -32.14 44 -42 44 C-40.73933903 37.69669514 -38.65636547 31.8186054 -36.5625 25.75 C-36.15451172 24.54085937 -35.74652344 23.33171875 -35.32617188 22.0859375 C-34.93107422 20.93867187 -34.53597656 19.79140625 -34.12890625 18.609375 C-33.76869385 17.55717773 -33.40848145 16.50498047 -33.03735352 15.42089844 C-32 13 -32 13 -30 12 C-31.33921768 17.72564082 -33.0363914 23.17116053 -35.0625 28.6875 C-35.59834212 30.14853715 -36.13098569 31.61075203 -36.66015625 33.07421875 C-36.89355713 33.70932373 -37.12695801 34.34442871 -37.36743164 34.9987793 C-38.0896743 37.2836975 -38.53003741 39.65018707 -39 42 C-31.08 42 -23.16 42 -15 42 C-14.00097656 39.13570312 -13.00195312 36.27140625 -11.97265625 33.3203125 C-11.00658752 30.55343583 -10.04005949 27.78672002 -9.07348633 25.02001953 C-8.40080456 23.09375523 -7.72860212 21.16732348 -7.05688477 19.24072266 C-6.09256258 16.47514627 -5.12653102 13.71017221 -4.16015625 10.9453125 C-3.85908463 10.0806839 -3.558013 9.2160553 -3.24781799 8.32522583 C-2.967603 7.52454681 -2.687388 6.7238678 -2.39868164 5.89892578 C-2.02894981 4.83969406 -2.02894981 4.83969406 -1.65174866 3.75906372 C-1 2 -1 2 0 0 Z " fill="#60F6E6" transform="translate(463,630)"/>
<path d="M0 0 C1.11181784 3.33545353 0.97472828 3.73492409 -0.29296875 6.80859375 C-0.74119995 7.92089355 -0.74119995 7.92089355 -1.19848633 9.05566406 C-1.52486084 9.84166992 -1.85123535 10.62767578 -2.1875 11.4375 C-2.84336378 13.06551448 -3.49700793 14.69442491 -4.1484375 16.32421875 C-4.62748535 17.51990479 -4.62748535 17.51990479 -5.11621094 18.73974609 C-7.35667767 24.46964691 -9.25340485 30.34402746 -10.91796875 36.265625 C-11.45357422 37.61914062 -11.45357422 37.61914062 -12 39 C-13.485 39.495 -13.485 39.495 -15 40 C-15.33 38.68 -15.66 37.36 -16 36 C-15.34 36 -14.68 36 -14 36 C-13.81993408 34.71258911 -13.81993408 34.71258911 -13.63623047 33.39916992 C-12.52708095 27.47334921 -10.22088304 21.95000976 -8.125 16.3125 C-7.67769531 15.07693359 -7.23039062 13.84136719 -6.76953125 12.56835938 C-6.33253906 11.38693359 -5.89554687 10.20550781 -5.4453125 8.98828125 C-4.85000732 7.37240112 -4.85000732 7.37240112 -4.24267578 5.72387695 C-3.08359881 3.18324399 -2.11820058 1.77002952 0 0 Z " fill="#030E10" transform="translate(472,444)"/>
<path d="M0 0 C0.33 0 0.66 0 1 0 C0.55993072 8.52985357 -2.20691569 16.09671733 -5.0625 24.0625 C-5.54059214 25.4183103 -6.01781285 26.77442821 -6.49414062 28.13085938 C-7.65273638 31.42417968 -8.82306504 34.71318219 -10 38 C-10.66 38 -11.32 38 -12 38 C-11.09392444 31.06136873 -9.79716534 24.87115498 -7.0078125 18.4453125 C-5.96327034 15.91088074 -5.18506955 13.3861663 -4.4375 10.75 C-3.33745617 6.91797918 -1.93630391 3.50378803 0 0 Z " fill="#04090C" transform="translate(522,560)"/>
<path d="M0 0 C0.66 0.33 1.32 0.66 2 1 C-7.38527966 10.55836883 -7.38527966 10.55836883 -11.8125 14.3125 C-17.88797955 19.49857945 -23.39457246 25.31766873 -29 31 C-29.66 30.34 -30.32 29.68 -31 29 C-28.4471355 26.2201544 -25.88109057 23.45281466 -23.3125 20.6875 C-22.59126953 19.90181641 -21.87003906 19.11613281 -21.12695312 18.30664062 C-20.42119141 17.54931641 -19.71542969 16.79199219 -18.98828125 16.01171875 C-18.34415283 15.31522217 -17.70002441 14.61872559 -17.03637695 13.90112305 C-14.8459164 11.85615047 -12.60088927 10.47363187 -10 9 C-8.76546749 8.03252962 -7.55438572 7.033982 -6.375 6 C-5.80523437 5.505 -5.23546875 5.01 -4.6484375 4.5 C-3.04887071 3.04447003 -1.51520277 1.54275191 0 0 Z " fill="#030B0F" transform="translate(249,396)"/>
<path d="M0 0 C0.33 0 0.66 0 1 0 C0.44581616 7.24837274 -1.69209553 13.65489417 -4.0625 20.5 C-4.43955078 21.60859375 -4.81660156 22.7171875 -5.20507812 23.859375 C-6.12990739 26.57532929 -7.06168716 29.28868081 -8 32 C-8.99 32 -9.98 32 -11 32 C-10.46274105 28.62294375 -9.88935377 25.303314 -9 22 C-8.34 22 -7.68 22 -7 22 C-6.86335937 21.13632812 -6.72671875 20.27265625 -6.5859375 19.3828125 C-6.03112918 16.17971913 -5.37712555 13.03716224 -4.625 9.875 C-4.39039063 8.86179687 -4.15578125 7.84859375 -3.9140625 6.8046875 C-2.99392068 3.98134637 -1.97011436 2.20189252 0 0 Z " fill="#030A0D" transform="translate(568,424)"/>
<path d="M0 0 C0.5775 0.350625 1.155 0.70125 1.75 1.0625 C1.75 1.3925 1.75 1.7225 1.75 2.0625 C-2.47091353 3.0892087 -6.55580927 3.21557599 -10.875 3.1875 C-11.60195068 3.18556641 -12.32890137 3.18363281 -13.07788086 3.18164062 C-21.81524181 3.11489368 -30.53097909 2.59846616 -39.25 2.0625 C-39.25 1.7325 -39.25 1.4025 -39.25 1.0625 C-38.2712793 1.03744385 -37.29255859 1.0123877 -36.28417969 0.98657227 C-32.64619296 0.89226017 -29.00838657 0.79209797 -25.37060547 0.69018555 C-23.79740626 0.64692662 -22.22416283 0.60524526 -20.65087891 0.56518555 C-18.38690885 0.50726338 -16.12315949 0.44363286 -13.859375 0.37890625 C-12.80759064 0.35383751 -12.80759064 0.35383751 -11.73455811 0.32826233 C-0.05852023 -0.02438343 -0.05852023 -0.02438343 0 0 Z " fill="#020305" transform="translate(459.25,699.9375)"/>
<path d="M0 0 C1.75986897 5.14474258 -0.4903653 9.2846747 -2.25 14.1875 C-2.71986328 15.5787207 -2.71986328 15.5787207 -3.19921875 16.99804688 C-3.50988281 17.87912109 -3.82054687 18.76019531 -4.140625 19.66796875 C-4.42454102 20.47516357 -4.70845703 21.2823584 -5.00097656 22.11401367 C-6 24 -6 24 -9 25 C-9.33 23.68 -9.66 22.36 -10 21 C-9.34 21 -8.68 21 -8 21 C-7.88527344 20.33484375 -7.77054688 19.6696875 -7.65234375 18.984375 C-6.85261628 15.32574156 -5.73603385 11.80139399 -4.5625 8.25 C-4.34529297 7.56550781 -4.12808594 6.88101562 -3.90429688 6.17578125 C-3.32867391 4.42989778 -2.67012176 2.71183753 -2 1 C-1.34 0.67 -0.68 0.34 0 0 Z " fill="#03080A" transform="translate(586,374)"/>
<path d="M0 0 C1.40203586 4.20610759 -0.20125989 7.11159125 -1.67578125 11.09765625 C-1.96100143 11.88772568 -2.24622162 12.6777951 -2.54008484 13.49180603 C-3.14529036 15.16190926 -3.75501636 16.83038023 -4.36889648 18.49731445 C-5.30870397 21.0521805 -6.23255555 23.61239637 -7.15429688 26.17382812 C-7.74385243 27.79461279 -8.33431688 29.41506719 -8.92578125 31.03515625 C-9.20295486 31.80287857 -9.48012848 32.57060089 -9.76570129 33.36158752 C-11.7686686 38.7686686 -11.7686686 38.7686686 -14 41 C-12.74710381 34.10907094 -10.58181331 27.74230793 -8.12060547 21.20532227 C-6.4887756 16.77570528 -5.49941266 12.69817834 -5 8 C-4.01 8 -3.02 8 -2 8 C-1.7834375 6.576875 -1.7834375 6.576875 -1.5625 5.125 C-1 2 -1 2 0 0 Z " fill="#5FF2DF" transform="translate(552,380)"/>
<path d="M0 0 C0.66 0 1.32 0 2 0 C1.48191721 4.92178649 -0.12682589 9.00704583 -2.0234375 13.5234375 C-2.8822365 15.70135176 -3.51134974 17.79250824 -4.0625 20.0625 C-4.5265625 21.5165625 -4.5265625 21.5165625 -5 23 C-5.99 23.33 -6.98 23.66 -8 24 C-7.40024237 18.80434683 -6.24965338 14.13090859 -4.5625 9.1875 C-4.34529297 8.52041016 -4.12808594 7.85332031 -3.90429688 7.16601562 C-2.91568263 4.22392338 -2.2235936 2.2235936 0 0 Z " fill="#040D10" transform="translate(415,601)"/>
<path d="M0 0 C-0.68266641 3.04413492 -1.67887224 5.8084483 -2.875 8.6875 C-4.79269568 13.39775252 -6.45550711 18.15590868 -8 23 C-8.66 22.67 -9.32 22.34 -10 22 C-9.41804264 16.91277721 -8.30448482 12.47361058 -6.5625 7.625 C-6.13066406 6.40039062 -5.69882812 5.17578125 -5.25390625 3.9140625 C-3.86759168 0.69228471 -3.4724279 0 0 0 Z " fill="#030D10" transform="translate(456,493)"/>
<path d="M0 0 C0.66 0.33 1.32 0.66 2 1 C0.35 2.98 -1.3 4.96 -3 7 C1.15457839 12.91712679 5.77258334 18.01139933 11 23 C12.65 22.34 14.3 21.68 16 21 C14.35 22.65 12.7 24.3 11 26 C8.91349269 23.94062935 6.83075945 21.87766489 4.75 19.8125 C4.16347656 19.23435547 3.57695313 18.65621094 2.97265625 18.06054688 C-3.40580136 11.71792329 -3.40580136 11.71792329 -6 8 C-6 5 -6 5 -4.6875 3.61328125 C-3.125 2.40885417 -1.5625 1.20442708 0 0 Z " fill="#5CF4E3" transform="translate(665,594)"/>
<path d="M0 0 C3.53675651 1.52852925 5.99564746 3.6416389 8.8125 6.25 C9.68648438 7.04921875 10.56046875 7.8484375 11.4609375 8.671875 C12.29882812 9.44015625 13.13671875 10.2084375 14 11 C18.52737315 15.24443524 18.52737315 15.24443524 24 18 C24.33 18.66 24.66 19.32 25 20 C26.32 19.01 27.64 18.02 29 17 C27.54755043 20.75216138 27.54755043 20.75216138 25.14453125 21.83984375 C23 22 23 22 21.24609375 20.6640625 C20.35083984 19.65472656 20.35083984 19.65472656 19.4375 18.625 C15.44499993 14.34785639 11.12126255 10.77475802 6.515625 7.17578125 C3.97597179 4.97921784 2.00990679 2.68144107 0 0 Z " fill="#5AF1DF" transform="translate(296,598)"/>
<path d="M0 0 C1.74084364 4.12919619 0.12679467 7.6902315 -1.25 11.6875 C-1.46785156 12.37650391 -1.68570313 13.06550781 -1.91015625 13.77539062 C-2.578125 15.76171875 -2.578125 15.76171875 -4 19 C-4.99 19.33 -5.98 19.66 -7 20 C-6.39816529 14.34275371 -4.90692814 9.34768978 -3 4 C-2.67 3.01 -2.34 2.02 -2 1 C-1.34 0.67 -0.68 0.34 0 0 Z " fill="#040A0D" transform="translate(557,457)"/>
<path d="M0 0 C1.99172758 5.97518273 -1.28848322 12.02597135 -3.90234375 17.43359375 C-5 19 -5 19 -8 20 C-3.4351585 3.4351585 -3.4351585 3.4351585 0 0 Z " fill="#040B0D" transform="translate(482,415)"/>
<path d="M0 0 C0.66 0 1.32 0 2 0 C2.28053431 4.93588743 1.34848794 8.67251303 -0.3125 13.3125 C-0.95638672 15.16294922 -0.95638672 15.16294922 -1.61328125 17.05078125 C-2.07089844 18.02402344 -2.52851562 18.99726563 -3 20 C-3.99 20.33 -4.98 20.66 -6 21 C-4.78880323 13.65313537 -2.71328887 6.92810652 0 0 Z " fill="#04090C" transform="translate(575,401)"/>
<path d="M0 0 C1 2 1 2 0.39501953 4.2590332 C0.06099121 5.18031006 -0.27303711 6.10158691 -0.6171875 7.05078125 C-0.97683594 8.05947266 -1.33648437 9.06816406 -1.70703125 10.10742188 C-2.28517578 11.69393555 -2.28517578 11.69393555 -2.875 13.3125 C-3.62540594 15.39084272 -4.37290634 17.47023731 -5.1171875 19.55078125 C-5.45347168 20.47544189 -5.78975586 21.40010254 -6.13623047 22.3527832 C-6.96477368 24.89204099 -7.53477622 27.37234717 -8 30 C-6.35 30 -4.7 30 -3 30 C-3 30.33 -3 30.66 -3 31 C-5.64 31 -8.28 31 -11 31 C-8.98337791 24.07402968 -6.76666224 17.2425898 -4.375 10.4375 C-4.06304687 9.53708984 -3.75109375 8.63667969 -3.4296875 7.70898438 C-3.130625 6.85498047 -2.8315625 6.00097656 -2.5234375 5.12109375 C-2.25450684 4.3520874 -1.98557617 3.58308105 -1.70849609 2.79077148 C-1 1 -1 1 0 0 Z " fill="#58F0DD" transform="translate(432,642)"/>
<path d="M0 0 C0.33 0 0.66 0 1 0 C1.25 6.625 1.25 6.625 -1 10 C-1.69100553 11.99172182 -2.35902703 13.99161804 -3 16 C-3.33 16.66 -3.66 17.32 -4 18 C-4.66 18 -5.32 18 -6 18 C-5.50356293 12.29097373 -4.20216829 4.20216829 0 0 Z " fill="#030B0E" transform="translate(431,556)"/>
<path d="M0 0 C3.794236 0.54322762 5.2310956 2.0215768 7.625 4.9375 C8.21539062 5.64777344 8.80578125 6.35804688 9.4140625 7.08984375 C9.93742187 7.72019531 10.46078125 8.35054688 11 9 C11.66 9.66 12.32 10.32 13 11 C12.625 14.125 12.625 14.125 12 17 C11.34 17 10.68 17 10 17 C9.84144531 16.40832031 9.68289063 15.81664062 9.51953125 15.20703125 C7.93655823 9.84591267 6.31081081 6.75814276 2 3 C1.34 2.01 0.68 1.02 0 0 Z " fill="#060E11" transform="translate(342,351)"/>
<path d="M0 0 C0.66 0.33 1.32 0.66 2 1 C0.77937479 2.44475986 -0.45192126 3.88050764 -1.6875 5.3125 C-2.37199219 6.11300781 -3.05648437 6.91351563 -3.76171875 7.73828125 C-6.03342664 10.03377665 -8.22376656 11.38345901 -11 13 C-12.312006 14.18511954 -13.58659486 15.41352015 -14.8125 16.6875 C-15.41707031 17.31011719 -16.02164063 17.93273437 -16.64453125 18.57421875 C-17.31548828 19.27998047 -17.31548828 19.27998047 -18 20 C-18 17 -18 17 -16.53125 15.203125 C-15.52578125 14.23632812 -15.52578125 14.23632812 -14.5 13.25 C-13.77554688 12.55132812 -13.05109375 11.85265625 -12.3046875 11.1328125 C-9.47285309 8.51216574 -6.59431238 5.95528749 -3.6640625 3.4453125 C-2.39833536 2.34597202 -1.1854566 1.1854566 0 0 Z " fill="#051415" transform="translate(258,386)"/>
<path d="M0 0 C1.15628906 0.00386719 2.31257812 0.00773437 3.50390625 0.01171875 C6.4375 0.3125 6.4375 0.3125 8.4375 2.3125 C5.81333048 2.67414523 3.18849687 3.02711153 0.5625 3.375 C-0.18386719 3.47876953 -0.93023438 3.58253906 -1.69921875 3.68945312 C-7.3359375 4.42578125 -7.3359375 4.42578125 -9.5625 3.3125 C-6.88631495 -0.32289116 -4.31569535 -0.06268608 0 0 Z " fill="#020509" transform="translate(671.5625,341.6875)"/>
<path d="M0 0 C0.66 0 1.32 0 2 0 C1.47606294 5.86809507 0.23891142 10.54873741 -2 16 C-2.66 16 -3.32 16 -4 16 C-3.39891424 10.34979382 -1.92471317 5.33835539 0 0 Z " fill="#04080A" transform="translate(506,607)"/>
<path d="M0 0 C0.66 0.33 1.32 0.66 2 1 C0.35 5.95 -1.3 10.9 -3 16 C-5 14 -5 14 -5.125 10.875 C-5.08375 9.92625 -5.0425 8.9775 -5 8 C-4.34 8 -3.68 8 -3 8 C-2.87625 7.05125 -2.7525 6.1025 -2.625 5.125 C-2 2 -2 2 0 0 Z " fill="#030D0F" transform="translate(421,584)"/>
<path d="M0 0 C3.60348808 1.20116269 3.9058468 2.01841281 5.6875 5.25 C6.12449219 6.01828125 6.56148438 6.7865625 7.01171875 7.578125 C8.09669092 10.23695009 8.18655326 12.15632325 8 15 C5.68333005 12.87528271 4.25041422 10.88372366 2.875 8.0625 C2.54242188 7.39347656 2.20984375 6.72445312 1.8671875 6.03515625 C1.01603969 4.0376427 0.46426176 2.11760212 0 0 Z " fill="#04090A" transform="translate(354,580)"/>
<path d="M0 0 C1.37095624 3.69037278 0.60010967 5.70883835 -0.9375 9.25 C-1.31777344 10.14203125 -1.69804687 11.0340625 -2.08984375 11.953125 C-2.39019531 12.62859375 -2.69054687 13.3040625 -3 14 C-3.66 13.67 -4.32 13.34 -5 13 C-4.4999231 7.89921563 -3.74076891 3.74076891 0 0 Z " fill="#030B0E" transform="translate(439,535)"/>
<path d="M0 0 C0.66 0 1.32 0 2 0 C2.42927453 6.22448068 1.99400188 9.15878559 -2 14 C-2.33 14 -2.66 14 -3 14 C-2.58846263 9.02906176 -2.20399168 4.55491614 0 0 Z " fill="#020A0E" transform="translate(444,516)"/>
<path d="M0 0 C0.33 0 0.66 0 1 0 C1.05402274 2.10388569 1.09280256 4.20816714 1.125 6.3125 C1.14820313 7.48425781 1.17140625 8.65601563 1.1953125 9.86328125 C1 13 1 13 -1 16 C-2.1732849 11.45352102 -2.54128467 6.66972706 -2 2 C-1.34 1.34 -0.68 0.68 0 0 Z " fill="#071517" transform="translate(636,375)"/>
<path d="M0 0 C0.66 0 1.32 0 2 0 C1.27991594 4.60853797 -0.31295939 8.67237409 -2 13 C-2.66 13 -3.32 13 -4 13 C-3.56826373 7.90551202 -3.24599784 4.15487723 0 0 Z " fill="#050B0F" transform="translate(406,627)"/>
<path d="M0 0 C0.66 0.33 1.32 0.66 2 1 C-8.37357631 11.55808656 -8.37357631 11.55808656 -14 16 C-14.66 15.67 -15.32 15.34 -16 15 C-13.0756241 11.26329746 -11.22873742 9.11436871 -7 7 C-5.0500371 5.29004456 -5.0500371 5.29004456 -3.25 3.375 C-2.63640625 2.74335938 -2.0228125 2.11171875 -1.390625 1.4609375 C-0.93171875 0.97882813 -0.4728125 0.49671875 0 0 Z " fill="#010307" transform="translate(249,396)"/>
<path d="M0 0 C0.66 0.66 1.32 1.32 2 2 C0.68 3.32 -0.64 4.64 -2 6 C-2.66 5.34 -3.32 4.68 -4 4 C-2.68 2.68 -1.36 1.36 0 0 Z M-3 6 C-3 9.58912412 -3.66436554 10.10857029 -6 12.6875 C-6.556875 13.31011719 -7.11375 13.93273437 -7.6875 14.57421875 C-8.120625 15.04472656 -8.55375 15.51523437 -9 16 C-9.99 15.67 -10.98 15.34 -12 15 C-9.03 12.03 -6.06 9.06 -3 6 Z " fill="#032D24" transform="translate(274,448)"/>
<path d="M0 0 C0.66 0.99 1.32 1.98 2 3 C1.67 3.66 1.34 4.32 1 5 C0.14210806 6.87329846 -0.71154692 8.74853936 -1.5625 10.625 C-2.24505859 12.12933594 -2.24505859 12.12933594 -2.94140625 13.6640625 C-3.29074219 14.43492187 -3.64007813 15.20578125 -4 16 C-4.33 16 -4.66 16 -5 16 C-5 13.36 -5 10.72 -5 8 C-4.01 8 -3.02 8 -2 8 C-1.855625 7.236875 -1.71125 6.47375 -1.5625 5.6875 C-1 3 -1 3 0 0 Z " fill="#012C21" transform="translate(501,436)"/>
<path d="M0 0 C0.33 0 0.66 0 1 0 C1.3227506 4.62609198 0.84450614 7.28026121 -2 11 C-2.66 11 -3.32 11 -4 11 C-3.71758359 9.53984709 -3.42373386 8.08190207 -3.125 6.625 C-2.96257812 5.81289063 -2.80015625 5.00078125 -2.6328125 4.1640625 C-2 2 -2 2 0 0 Z " fill="#040A0D" transform="translate(401,642)"/>
<path d="M0 0 C4.81430721 -0.56638908 7.20307814 1.17438373 11 4 C10.67 4.99 10.34 5.98 10 7 C6.7 5.35 3.4 3.7 0 2 C0 1.34 0 0.68 0 0 Z " fill="#030C0F" transform="translate(330,344)"/>
<path d="M0 0 C2.48038907 3.7205836 2.46337203 5.59796571 2 10 C0 12.4375 0 12.4375 -2 14 C-1.42415568 11.61435923 -0.77772405 9.33317216 0 7 C-0.66 6.67 -1.32 6.34 -2 6 C-1.34 4.02 -0.68 2.04 0 0 Z " fill="#042B1E" transform="translate(558,366)"/>
<path d="M0 0 C0.66 0.33 1.32 0.66 2 1 C-1.66666667 4.66666667 -5.33333333 8.33333333 -9 12 C-9.66 11.67 -10.32 11.34 -11 11 C-7.37 7.37 -3.74 3.74 0 0 Z " fill="#051314" transform="translate(192,447)"/>
<path d="M0 0 C1.48378488 4.45135463 -0.07566272 7.83318903 -2 12 C-4.1875 14.0625 -4.1875 14.0625 -6 15 C-5.67 12.69 -5.34 10.38 -5 8 C-4.01 8 -3.02 8 -2 8 C-1.7834375 6.576875 -1.7834375 6.576875 -1.5625 5.125 C-1 2 -1 2 0 0 Z " fill="#54F3D1" transform="translate(552,380)"/>
<path d="M0 0 C0.66 0.99 1.32 1.98 2 3 C-0.97 5.31 -3.94 7.62 -7 10 C-7.66 9.67 -8.32 9.34 -9 9 C-6.03 6.03 -3.06 3.06 0 0 Z " fill="#051113" transform="translate(176,462)"/>
<path d="M0 0 C0.66 0.33 1.32 0.66 2 1 C1.01 3.97 0.02 6.94 -1 10 C-1.66 10 -2.32 10 -3 10 C-2.25 2.25 -2.25 2.25 0 0 Z " fill="#040B0E" transform="translate(486,404)"/>
<path d="M0 0 C1.23593891 3.70781672 0.5678132 4.67510253 -0.9375 8.1875 C-1.31777344 9.08855469 -1.69804687 9.98960937 -2.08984375 10.91796875 C-2.54037109 11.94857422 -2.54037109 11.94857422 -3 13 C-3.33 13 -3.66 13 -4 13 C-4 10.69 -4 8.38 -4 6 C-3.01 5.67 -2.02 5.34 -1 5 C-0.67 3.35 -0.34 1.7 0 0 Z " fill="#012B21" transform="translate(468,529)"/>
<path d="M0 0 C0.66 0 1.32 0 2 0 C1.28269264 3.23165844 0.18684926 6.18707922 -1.0625 9.25 C-1.42472656 10.14203125 -1.78695312 11.0340625 -2.16015625 11.953125 C-2.43730469 12.62859375 -2.71445312 13.3040625 -3 14 C-4.37095624 10.30962722 -3.60010967 8.29116165 -2.0625 4.75 C-1.68222656 3.85796875 -1.30195312 2.9659375 -0.91015625 2.046875 C-0.60980469 1.37140625 -0.30945313 0.6959375 0 0 Z " fill="#02100B" transform="translate(556,373)"/>
<path d="M0 0 C1.65 1.65 3.3 3.3 5 5 C4.67 5.99 4.34 6.98 4 8 C1 7 1 7 -0.25 4.5625 C-1 2 -1 2 0 0 Z " fill="#04291F" transform="translate(658,600)"/>
<path d="M0 0 C2.32749345 3.49124017 2.50299316 4.89222251 2 9 C0 11.375 0 11.375 -2 13 C-1.84402344 12.44570313 -1.68804688 11.89140625 -1.52734375 11.3203125 C-1.33269531 10.59585937 -1.13804687 9.87140625 -0.9375 9.125 C-0.64166016 8.04605469 -0.64166016 8.04605469 -0.33984375 6.9453125 C0.21132607 4.92726407 0.21132607 4.92726407 -1 3 C-0.67 2.01 -0.34 1.02 0 0 Z " fill="#052E21" transform="translate(526,455)"/>
<path d="M0 0 C2 4 2 4 1.3125 6.6875 C0 9 0 9 -3 10 C-2.01 6.7 -1.02 3.4 0 0 Z " fill="#051315" transform="translate(477,425)"/>
<path d="M0 0 C1.46726798 3.81489674 0.43336419 6.29011622 -1 10 C-3 7 -3 7 -2.75 3.875 C-2.37875 2.451875 -2.37875 2.451875 -2 1 C-1.34 0.67 -0.68 0.34 0 0 Z " fill="#060C0F" transform="translate(586,374)"/>
<path d="M0 0 C5.75 0.75 5.75 0.75 8 3 C5.75 4.1875 5.75 4.1875 3 5 C0.6875 3.625 0.6875 3.625 -1 2 C-0.67 1.34 -0.34 0.68 0 0 Z " fill="#061416" transform="translate(678,342)"/>
<path d="M0 0 C0.33 0 0.66 0 1 0 C1.35233161 5.37305699 1.35233161 5.37305699 1 8 C-1 10 -1 10 -3 11 C-2.69078116 9.54096742 -2.37751201 8.08279278 -2.0625 6.625 C-1.88847656 5.81289063 -1.71445312 5.00078125 -1.53515625 4.1640625 C-1 2 -1 2 0 0 Z " fill="#022E24" transform="translate(471,616)"/>
<path d="M0 0 C1.13643966 3.40931897 0.86747764 4.00335456 -0.4375 7.1875 C-0.72496094 7.90292969 -1.01242187 8.61835937 -1.30859375 9.35546875 C-1.53675781 9.89816406 -1.76492188 10.44085937 -2 11 C-4 8 -4 8 -3.8125 5.5 C-2.95559826 2.86337925 -2.11007147 1.74310252 0 0 Z " fill="#032D23" transform="translate(491,559)"/>
<path d="M0 0 C0.33 0.99 0.66 1.98 1 3 C-1.97 5.475 -1.97 5.475 -5 8 C-5 5 -5 5 -2.5 2.3125 C-1.675 1.549375 -0.85 0.78625 0 0 Z " fill="#01070C" transform="translate(670,555)"/>
<path d="M0 0 C0.33 1.32 0.66 2.64 1 4 C-2.625 7 -2.625 7 -6 7 C-6 6.34 -6 5.68 -6 5 C-4.04072937 3.2856382 -2.04119788 1.61594832 0 0 Z " fill="#063426" transform="translate(197,480)"/>
<path d="M0 0 C0.66 0 1.32 0 2 0 C0.44499019 3.81684226 -2.03595495 6.19195732 -5 9 C-5.66 8.67 -6.32 8.34 -7 8 C-5.88200014 6.66079162 -4.75538103 5.32877444 -3.625 4 C-2.68527344 2.88625 -2.68527344 2.88625 -1.7265625 1.75 C-1.15679687 1.1725 -0.58703125 0.595 0 0 Z " fill="#010306" transform="translate(262,383)"/>
<path d="M0 0 C3.25543229 0.34879632 4.01873107 1.02133261 6.25 3.5625 C6.8275 4.366875 7.405 5.17125 8 6 C7.01 6.495 7.01 6.495 6 7 C1.125 2.25 1.125 2.25 0 0 Z " fill="#03070A" transform="translate(342,351)"/>
<path d="M0 0 C0 0.99 0 1.98 0 3 C-3.3 3.33 -6.6 3.66 -10 4 C-6.26899054 1.2017429 -4.49421532 0 0 0 Z " fill="#061416" transform="translate(466,699)"/>
<path d="M0 0 C0.66 0 1.32 0 2 0 C2.33 2.31 2.66 4.62 3 7 C2.01 7.66 1.02 8.32 0 9 C0 6.03 0 3.06 0 0 Z " fill="#03070A" transform="translate(499,624)"/>
<path d="M0 0 C1.65 0 3.3 0 5 0 C5 3 5 3 4 5 C3.34 5 2.68 5 2 5 C1.34 3.35 0.68 1.7 0 0 Z " fill="#061616" transform="translate(350,576)"/>
<path d="M0 0 C-1.485 2.475 -1.485 2.475 -3 5 C-3.99 4.67 -4.98 4.34 -6 4 C-6 2.68 -6 1.36 -6 0 C-2.25 -1.125 -2.25 -1.125 0 0 Z " fill="#02291F" transform="translate(710,552)"/>
<path d="M0 0 C3.26954202 0.56371414 4.82575883 1.49962266 7 4 C6.67 4.99 6.34 5.98 6 7 C1.125 3.375 1.125 3.375 0 0 Z " fill="#020407" transform="translate(295,525)"/>
<path d="M0 0 C0.66 0.66 1.32 1.32 2 2 C-1.465 4.97 -1.465 4.97 -5 8 C-4 4 -4 4 -1.9375 2.75 C-1.298125 2.5025 -0.65875 2.255 0 2 C0 1.34 0 0.68 0 0 Z " fill="#010507" transform="translate(733,494)"/>
<path d="M0 0 C0.99 0 1.98 0 3 0 C2.25 5.75 2.25 5.75 0 8 C-0.79953138 4.71303767 -1.09658936 3.28976808 0 0 Z " fill="#043023" transform="translate(463,633)"/>
<path d="M0 0 C0.33 0 0.66 0 1 0 C1 1.65 1 3.3 1 5 C-0.65 5.66 -2.3 6.32 -4 7 C-1.125 1.125 -1.125 1.125 0 0 Z " fill="#02080C" transform="translate(527,546)"/>
<path d="M0 0 C0.66 0 1.32 0 2 0 C2 1.65 2 3.3 2 5 C0.02 5.99 0.02 5.99 -2 7 C-1.34 4.69 -0.68 2.38 0 0 Z " fill="#041314" transform="translate(444,516)"/>
<path d="M0 0 C0.99 0 1.98 0 3 0 C2.34 1.98 1.68 3.96 1 6 C0.34 6 -0.32 6 -1 6 C-0.67 4.02 -0.34 2.04 0 0 Z " fill="#040D0F" transform="translate(455,486)"/>
<path d="M0 0 C3.53600465 1.91135386 5.78972846 3.62642766 8 7 C4.21388773 6.45912682 2.44599233 4.88277668 0 2 C0 1.34 0 0.68 0 0 Z " fill="#51E8CB" transform="translate(742,430)"/>
<path d="M0 0 C0.33 1.32 0.66 2.64 1 4 C0.34 3.67 -0.32 3.34 -1 3 C-0.67 2.01 -0.34 1.02 0 0 Z " fill="#0B3431" transform="translate(682,536)"/>
<path d="M0 0 C0.99 0.99 1.98 1.98 3 3 C1.68 2.34 0.36 1.68 -1 1 C-0.67 0.67 -0.34 0.34 0 0 Z " fill="#163333" transform="translate(593,280)"/>
<path d="M0 0 C0.33 0.99 0.66 1.98 1 3 C0.01 3.495 0.01 3.495 -1 4 C-0.67 2.68 -0.34 1.36 0 0 Z " fill="#0F3737" transform="translate(401,632)"/>
<path d="" fill="#103937" transform="translate(0,0)"/>
<path d="" fill="#123839" transform="translate(0,0)"/>
<path d="M0 0 C0.66 0 1.32 0 2 0 C1.67 0.66 1.34 1.32 1 2 C0.67 1.34 0.34 0.68 0 0 Z " fill="#123637" transform="translate(633,592)"/>
<path d="" fill="#0C3B37" transform="translate(0,0)"/>
<path d="M0 0 C0.99 0.495 0.99 0.495 2 1 C1.01 1.495 1.01 1.495 0 2 C0 1.34 0 0.68 0 0 Z " fill="#0B3533" transform="translate(712,511)"/>
<path d="M0 0 C0.66 0.66 1.32 1.32 2 2 C1.34 2 0.68 2 0 2 C0 1.34 0 0.68 0 0 Z " fill="#0A3131" transform="translate(790,432)"/>
<path d="M0 0 C0.66 0 1.32 0 2 0 C1.67 0.66 1.34 1.32 1 2 C0.67 1.34 0.34 0.68 0 0 Z " fill="#0F3534" transform="translate(289,352)"/>
<path d="M0 0 C0.66 0.66 1.32 1.32 2 2 C1.34 2 0.68 2 0 2 C0 1.34 0 0.68 0 0 Z " fill="#143737" transform="translate(520,298)"/>
<path d="" fill="#132F33" transform="translate(0,0)"/>
<path d="" fill="#123031" transform="translate(0,0)"/>
<path d="M0 0 C2 1 2 1 2 1 Z " fill="#113634" transform="translate(400,625)"/>
<path d="M0 0 C2 1 2 1 2 1 Z " fill="#0F3131" transform="translate(256,602)"/>
<path d="" fill="#0F3232" transform="translate(0,0)"/>
<path d="M0 0 C2 1 2 1 2 1 Z " fill="#112F2F" transform="translate(229,583)"/>
<path d="M0 0 C2 1 2 1 2 1 Z " fill="#113030" transform="translate(227,582)"/>
<path d="M0 0 C2 1 2 1 2 1 Z " fill="#0F2F30" transform="translate(188,546)"/>
<path d="" fill="#0D3D38" transform="translate(0,0)"/>
<path d="M0 0 C2 1 2 1 2 1 Z " fill="#0F2F2E" transform="translate(820,537)"/>
<path d="M0 0 C2 1 2 1 2 1 Z " fill="#102E33" transform="translate(846,513)"/>
<path d="M0 0 C2 1 2 1 2 1 Z " fill="#103C39" transform="translate(456,464)"/>
<path d="M0 0 C2 1 2 1 2 1 Z " fill="#0D3433" transform="translate(171,464)"/>
<path d="M0 0 C2 1 2 1 2 1 Z " fill="#0B302F" transform="translate(816,456)"/>
<path d="" fill="#0E3D37" transform="translate(0,0)"/>
<path d="M0 0 C2 1 2 1 2 1 Z " fill="#0D3130" transform="translate(186,450)"/>
<path d="" fill="#0C3233" transform="translate(0,0)"/>
<path d="" fill="#0C3331" transform="translate(0,0)"/>
<path d="" fill="#0E3433" transform="translate(0,0)"/>
<path d="M0 0 C2 1 2 1 2 1 Z " fill="#0F3231" transform="translate(216,416)"/>
<path d="" fill="#0C3633" transform="translate(0,0)"/>
<path d="M0 0 C2 1 2 1 2 1 Z " fill="#0C3532" transform="translate(240,400)"/>
<path d="" fill="#0E3133" transform="translate(0,0)"/>
<path d="" fill="#103635" transform="translate(0,0)"/>
<path d="" fill="#0E3936" transform="translate(0,0)"/>
<path d="M0 0 C2 1 2 1 2 1 Z " fill="#123938" transform="translate(488,381)"/>
<path d="M0 0 C2 1 2 1 2 1 Z " fill="#0B3331" transform="translate(717,368)"/>
<path d="M0 0 C2 1 2 1 2 1 Z " fill="#0C3332" transform="translate(275,368)"/>
<path d="" fill="#0F3535" transform="translate(0,0)"/>
<path d="" fill="#0C3032" transform="translate(0,0)"/>
<path d="" fill="#123435" transform="translate(0,0)"/>
<path d="M0 0 C2 1 2 1 2 1 Z " fill="#123435" transform="translate(641,352)"/>
<path d="M0 0 C2 1 2 1 2 1 Z " fill="#103433" transform="translate(297,347)"/>
<path d="" fill="#123737" transform="translate(0,0)"/>
<path d="M0 0 C2 1 2 1 2 1 Z " fill="#183635" transform="translate(513,312)"/>
<path d="" fill="#313332" transform="translate(0,0)"/>
<path d="" fill="#123133" transform="translate(0,0)"/>
<path d="" fill="#163132" transform="translate(0,0)"/>
<path d="" fill="#113332" transform="translate(0,0)"/>
<path d="" fill="#163231" transform="translate(0,0)"/>
<path d="" fill="#112D2F" transform="translate(0,0)"/>
<path d="" fill="#132F32" transform="translate(0,0)"/>
<path d="" fill="#142E31" transform="translate(0,0)"/>
<path d="" fill="#152F33" transform="translate(0,0)"/>
<path d="" fill="#103031" transform="translate(0,0)"/>
<path d="" fill="#142F32" transform="translate(0,0)"/>
<path d="" fill="#132D2F" transform="translate(0,0)"/>
<path d="" fill="#123030" transform="translate(0,0)"/>
<path d="" fill="#133032" transform="translate(0,0)"/>
<path d="" fill="#173135" transform="translate(0,0)"/>
<path d="" fill="#133434" transform="translate(0,0)"/>
<path d="" fill="#113132" transform="translate(0,0)"/>
<path d="" fill="#123032" transform="translate(0,0)"/>
<path d="" fill="#0F3738" transform="translate(0,0)"/>
<path d="" fill="#103736" transform="translate(0,0)"/>
<path d="" fill="#123434" transform="translate(0,0)"/>
<path d="" fill="#143134" transform="translate(0,0)"/>
<path d="" fill="#143332" transform="translate(0,0)"/>
<path d="" fill="#123233" transform="translate(0,0)"/>
<path d="" fill="#153436" transform="translate(0,0)"/>
<path d="" fill="#133332" transform="translate(0,0)"/>
<path d="" fill="#123333" transform="translate(0,0)"/>
<path d="" fill="#163131" transform="translate(0,0)"/>
<path d="" fill="#113231" transform="translate(0,0)"/>
<path d="" fill="#123234" transform="translate(0,0)"/>
<path d="" fill="#102F2D" transform="translate(0,0)"/>
<path d="" fill="#102F2E" transform="translate(0,0)"/>
<path d="" fill="#103434" transform="translate(0,0)"/>
<path d="" fill="#113131" transform="translate(0,0)"/>
<path d="" fill="#103435" transform="translate(0,0)"/>
<path d="" fill="#113234" transform="translate(0,0)"/>
<path d="" fill="#0D2D2F" transform="translate(0,0)"/>
<path d="" fill="#0F3435" transform="translate(0,0)"/>
<path d="" fill="#0F3233" transform="translate(0,0)"/>
<path d="" fill="#0F2E2D" transform="translate(0,0)"/>
<path d="" fill="#113435" transform="translate(0,0)"/>
<path d="" fill="#103939" transform="translate(0,0)"/>
<path d="" fill="#123535" transform="translate(0,0)"/>
<path d="" fill="#123635" transform="translate(0,0)"/>
<path d="" fill="#123334" transform="translate(0,0)"/>
<path d="" fill="#113535" transform="translate(0,0)"/>
<path d="" fill="#0C3333" transform="translate(0,0)"/>
<path d="" fill="#143434" transform="translate(0,0)"/>
<path d="" fill="#132F2E" transform="translate(0,0)"/>
<path d="" fill="#133534" transform="translate(0,0)"/>
<path d="" fill="#113031" transform="translate(0,0)"/>
<path d="" fill="#0E3735" transform="translate(0,0)"/>
<path d="" fill="#123634" transform="translate(0,0)"/>
<path d="" fill="#123636" transform="translate(0,0)"/>
<path d="" fill="#103638" transform="translate(0,0)"/>
<path d="" fill="#103332" transform="translate(0,0)"/>
<path d="" fill="#123737" transform="translate(0,0)"/>
<path d="" fill="#103030" transform="translate(0,0)"/>
<path d="" fill="#10302F" transform="translate(0,0)"/>
<path d="" fill="#123637" transform="translate(0,0)"/>
<path d="" fill="#113836" transform="translate(0,0)"/>
<path d="" fill="#123437" transform="translate(0,0)"/>
<path d="" fill="#113837" transform="translate(0,0)"/>
<path d="" fill="#0F3637" transform="translate(0,0)"/>
<path d="" fill="#0E3938" transform="translate(0,0)"/>
<path d="" fill="#0F302F" transform="translate(0,0)"/>
<path d="" fill="#0F3132" transform="translate(0,0)"/>
<path d="" fill="#123233" transform="translate(0,0)"/>
<path d="" fill="#0D3334" transform="translate(0,0)"/>
<path d="" fill="#133938" transform="translate(0,0)"/>
<path d="" fill="#10312F" transform="translate(0,0)"/>
<path d="" fill="#133233" transform="translate(0,0)"/>
<path d="" fill="#103838" transform="translate(0,0)"/>
<path d="" fill="#1A3637" transform="translate(0,0)"/>
<path d="" fill="#173638" transform="translate(0,0)"/>
<path d="" fill="#133937" transform="translate(0,0)"/>
<path d="" fill="#163537" transform="translate(0,0)"/>
<path d="" fill="#0C322F" transform="translate(0,0)"/>
<path d="" fill="#113838" transform="translate(0,0)"/>
<path d="" fill="#123838" transform="translate(0,0)"/>
<path d="" fill="#113A37" transform="translate(0,0)"/>
<path d="" fill="#123B37" transform="translate(0,0)"/>
<path d="" fill="#113736" transform="translate(0,0)"/>
<path d="" fill="#113332" transform="translate(0,0)"/>
<path d="" fill="#0E3232" transform="translate(0,0)"/>
<path d="" fill="#0D3030" transform="translate(0,0)"/>
<path d="" fill="#0F3C37" transform="translate(0,0)"/>
<path d="" fill="#0F2D2F" transform="translate(0,0)"/>
<path d="" fill="#0D2F2E" transform="translate(0,0)"/>
<path d="" fill="#103130" transform="translate(0,0)"/>
<path d="" fill="#113533" transform="translate(0,0)"/>
<path d="" fill="#0C3534" transform="translate(0,0)"/>
<path d="" fill="#0D3533" transform="translate(0,0)"/>
<path d="" fill="#123B37" transform="translate(0,0)"/>
<path d="" fill="#0C3532" transform="translate(0,0)"/>
<path d="" fill="#0E2F2F" transform="translate(0,0)"/>
<path d="" fill="#103530" transform="translate(0,0)"/>
<path d="" fill="#113B37" transform="translate(0,0)"/>
<path d="" fill="#123031" transform="translate(0,0)"/>
<path d="" fill="#0C3431" transform="translate(0,0)"/>
<path d="" fill="#0D3433" transform="translate(0,0)"/>
<path d="" fill="#0A3130" transform="translate(0,0)"/>
<path d="" fill="#103431" transform="translate(0,0)"/>
<path d="" fill="#0F3634" transform="translate(0,0)"/>
<path d="" fill="#0D3533" transform="translate(0,0)"/>
<path d="" fill="#0E3634" transform="translate(0,0)"/>
<path d="" fill="#0D3733" transform="translate(0,0)"/>
<path d="" fill="#0F3937" transform="translate(0,0)"/>
<path d="" fill="#10302E" transform="translate(0,0)"/>
<path d="" fill="#0F2E30" transform="translate(0,0)"/>
<path d="" fill="#0F3635" transform="translate(0,0)"/>
<path d="" fill="#0F3232" transform="translate(0,0)"/>
<path d="" fill="#112F30" transform="translate(0,0)"/>
<path d="" fill="#0F3531" transform="translate(0,0)"/>
<path d="" fill="#0E3533" transform="translate(0,0)"/>
<path d="" fill="#0E3230" transform="translate(0,0)"/>
<path d="" fill="#0F3433" transform="translate(0,0)"/>
<path d="" fill="#0E302D" transform="translate(0,0)"/>
<path d="" fill="#103D38" transform="translate(0,0)"/>
<path d="" fill="#102D2E" transform="translate(0,0)"/>
<path d="" fill="#0C3432" transform="translate(0,0)"/>
<path d="" fill="#0F3C39" transform="translate(0,0)"/>
<path d="" fill="#0B3431" transform="translate(0,0)"/>
<path d="" fill="#0F3731" transform="translate(0,0)"/>
<path d="" fill="#0E2E2F" transform="translate(0,0)"/>
<path d="" fill="#103A38" transform="translate(0,0)"/>
<path d="" fill="#103032" transform="translate(0,0)"/>
<path d="" fill="#0A3431" transform="translate(0,0)"/>
<path d="" fill="#0D2D2E" transform="translate(0,0)"/>
<path d="" fill="#123131" transform="translate(0,0)"/>
<path d="" fill="#0B3432" transform="translate(0,0)"/>
<path d="" fill="#103533" transform="translate(0,0)"/>
<path d="" fill="#11312E" transform="translate(0,0)"/>
<path d="" fill="#0F3430" transform="translate(0,0)"/>
<path d="" fill="#0E3332" transform="translate(0,0)"/>
<path d="" fill="#103C37" transform="translate(0,0)"/>
<path d="" fill="#083430" transform="translate(0,0)"/>
<path d="" fill="#0F302F" transform="translate(0,0)"/>
<path d="" fill="#0F3D39" transform="translate(0,0)"/>
<path d="" fill="#0E3530" transform="translate(0,0)"/>
<path d="" fill="#0F3C38" transform="translate(0,0)"/>
<path d="" fill="#123233" transform="translate(0,0)"/>
<path d="" fill="#0A2F31" transform="translate(0,0)"/>
<path d="" fill="#0E3432" transform="translate(0,0)"/>
<path d="" fill="#0D3734" transform="translate(0,0)"/>
<path d="" fill="#0C3231" transform="translate(0,0)"/>
<path d="" fill="#0B3430" transform="translate(0,0)"/>
<path d="" fill="#0B3230" transform="translate(0,0)"/>
<path d="" fill="#0A3431" transform="translate(0,0)"/>
<path d="" fill="#103633" transform="translate(0,0)"/>
<path d="" fill="#0A3330" transform="translate(0,0)"/>
<path d="" fill="#083934" transform="translate(0,0)"/>
<path d="" fill="#173538" transform="translate(0,0)"/>
<path d="" fill="#0B322E" transform="translate(0,0)"/>
<path d="" fill="#143535" transform="translate(0,0)"/>
<path d="" fill="#0A3935" transform="translate(0,0)"/>
<path d="" fill="#0B3C35" transform="translate(0,0)"/>
<path d="" fill="#173335" transform="translate(0,0)"/>
<path d="" fill="#0C3431" transform="translate(0,0)"/>
<path d="" fill="#133436" transform="translate(0,0)"/>
<path d="" fill="#0A3932" transform="translate(0,0)"/>
<path d="" fill="#113735" transform="translate(0,0)"/>
<path d="" fill="#103835" transform="translate(0,0)"/>
<path d="" fill="#123836" transform="translate(0,0)"/>
<path d="" fill="#123837" transform="translate(0,0)"/>
<path d="" fill="#103632" transform="translate(0,0)"/>
<path d="" fill="#0F3431" transform="translate(0,0)"/>
<path d="" fill="#0D3C38" transform="translate(0,0)"/>
<path d="" fill="#0E3737" transform="translate(0,0)"/>
<path d="" fill="#103D38" transform="translate(0,0)"/>
<path d="" fill="#0D3B35" transform="translate(0,0)"/>
<path d="" fill="#0E3333" transform="translate(0,0)"/>
<path d="" fill="#0B3935" transform="translate(0,0)"/>
<path d="" fill="#0E3432" transform="translate(0,0)"/>
<path d="" fill="#0F3230" transform="translate(0,0)"/>
<path d="" fill="#0E2F30" transform="translate(0,0)"/>
<path d="" fill="#0D3332" transform="translate(0,0)"/>
<path d="" fill="#0E3833" transform="translate(0,0)"/>
<path d="" fill="#0B3E38" transform="translate(0,0)"/>
<path d="" fill="#0D3131" transform="translate(0,0)"/>
<path d="" fill="#093935" transform="translate(0,0)"/>
<path d="" fill="#083832" transform="translate(0,0)"/>
<path d="" fill="#0F3334" transform="translate(0,0)"/>
<path d="" fill="#0F3F3A" transform="translate(0,0)"/>
<path d="" fill="#0D3031" transform="translate(0,0)"/>
<path d="" fill="#0D3E3A" transform="translate(0,0)"/>
<path d="" fill="#0F3231" transform="translate(0,0)"/>
<path d="" fill="#093932" transform="translate(0,0)"/>
<path d="" fill="#083734" transform="translate(0,0)"/>
<path d="" fill="#083731" transform="translate(0,0)"/>
<path d="" fill="#0D3232" transform="translate(0,0)"/>
<path d="" fill="#0D3532" transform="translate(0,0)"/>
<path d="" fill="#0E3331" transform="translate(0,0)"/>
<path d="" fill="#0E3130" transform="translate(0,0)"/>
<path d="" fill="#123F3B" transform="translate(0,0)"/>
<path d="" fill="#0A3B36" transform="translate(0,0)"/>
<path d="" fill="#0F3331" transform="translate(0,0)"/>
<path d="" fill="#0F3431" transform="translate(0,0)"/>
<path d="" fill="#0D3232" transform="translate(0,0)"/>
<path d="" fill="#0C3C3A" transform="translate(0,0)"/>
<path d="" fill="#0D3433" transform="translate(0,0)"/>
<path d="" fill="#0E3231" transform="translate(0,0)"/>
<path d="" fill="#0B3833" transform="translate(0,0)"/>
<path d="" fill="#103331" transform="translate(0,0)"/>
<path d="" fill="#0B3833" transform="translate(0,0)"/>
<path d="" fill="#0F3432" transform="translate(0,0)"/>
<path d="" fill="#0D3232" transform="translate(0,0)"/>
<path d="" fill="#103533" transform="translate(0,0)"/>
<path d="" fill="#103C39" transform="translate(0,0)"/>
<path d="" fill="#103431" transform="translate(0,0)"/>
<path d="" fill="#0F3735" transform="translate(0,0)"/>
<path d="" fill="#123F39" transform="translate(0,0)"/>
<path d="" fill="#09332F" transform="translate(0,0)"/>
<path d="" fill="#0F3331" transform="translate(0,0)"/>
<path d="" fill="#0D3834" transform="translate(0,0)"/>
<path d="" fill="#133E39" transform="translate(0,0)"/>
<path d="" fill="#0F3332" transform="translate(0,0)"/>
<path d="" fill="#113B39" transform="translate(0,0)"/>
<path d="" fill="#0F3131" transform="translate(0,0)"/>
<path d="" fill="#0F3634" transform="translate(0,0)"/>
<path d="" fill="#123535" transform="translate(0,0)"/>
<path d="" fill="#143635" transform="translate(0,0)"/>
<path d="" fill="#0F302F" transform="translate(0,0)"/>
<path d="" fill="#133434" transform="translate(0,0)"/>
<path d="" fill="#0F3433" transform="translate(0,0)"/>
<path d="" fill="#0E3735" transform="translate(0,0)"/>
<path d="" fill="#103735" transform="translate(0,0)"/>
<path d="" fill="#0C3834" transform="translate(0,0)"/>
<path d="" fill="#0E3531" transform="translate(0,0)"/>
<path d="" fill="#103232" transform="translate(0,0)"/>
<path d="" fill="#133A39" transform="translate(0,0)"/>
<path d="" fill="#123838" transform="translate(0,0)"/>
<path d="" fill="#143A37" transform="translate(0,0)"/>
<path d="" fill="#133739" transform="translate(0,0)"/>
<path d="" fill="#0D312E" transform="translate(0,0)"/>
<path d="" fill="#153A3A" transform="translate(0,0)"/>
<path d="" fill="#143835" transform="translate(0,0)"/>
<path d="" fill="#0F3535" transform="translate(0,0)"/>
<path d="" fill="#0F3330" transform="translate(0,0)"/>
<path d="" fill="#113536" transform="translate(0,0)"/>
<path d="" fill="#0D3332" transform="translate(0,0)"/>
<path d="" fill="#0C3430" transform="translate(0,0)"/>
<path d="" fill="#103437" transform="translate(0,0)"/>
<path d="" fill="#0F3839" transform="translate(0,0)"/>
<path d="" fill="#0D3232" transform="translate(0,0)"/>
<path d="" fill="#0D3434" transform="translate(0,0)"/>
<path d="" fill="#113837" transform="translate(0,0)"/>
<path d="" fill="#0B3433" transform="translate(0,0)"/>
<path d="" fill="#123937" transform="translate(0,0)"/>
<path d="" fill="#0E3334" transform="translate(0,0)"/>
<path d="" fill="#0F3334" transform="translate(0,0)"/>
<path d="" fill="#0E3336" transform="translate(0,0)"/>
<path d="" fill="#113332" transform="translate(0,0)"/>
<path d="" fill="#0B3734" transform="translate(0,0)"/>
<path d="" fill="#0F332F" transform="translate(0,0)"/>
<path d="" fill="#123537" transform="translate(0,0)"/>
<path d="" fill="#323B3B" transform="translate(0,0)"/>
<path d="" fill="#113635" transform="translate(0,0)"/>
<path d="" fill="#0F3334" transform="translate(0,0)"/>
<path d="" fill="#133636" transform="translate(0,0)"/>
<path d="" fill="#123735" transform="translate(0,0)"/>
<path d="" fill="#0F3A38" transform="translate(0,0)"/>
<path d="" fill="#133C3A" transform="translate(0,0)"/>
<path d="" fill="#133535" transform="translate(0,0)"/>
<path d="" fill="#173636" transform="translate(0,0)"/>
<path d="" fill="#163635" transform="translate(0,0)"/>
<path d="" fill="#153537" transform="translate(0,0)"/>
<path d="" fill="#143836" transform="translate(0,0)"/>
<path d="" fill="#133738" transform="translate(0,0)"/>
<path d="" fill="#223636" transform="translate(0,0)"/>
<path d="" fill="#123133" transform="translate(0,0)"/>
<path d="" fill="#122F33" transform="translate(0,0)"/>
<path d="" fill="#143637" transform="translate(0,0)"/>
<path d="" fill="#143735" transform="translate(0,0)"/>
<path d="" fill="#113B38" transform="translate(0,0)"/>
<path d="" fill="#153938" transform="translate(0,0)"/>
<path d="" fill="#193435" transform="translate(0,0)"/>
<path d="" fill="#113634" transform="translate(0,0)"/>
<path d="" fill="#143233" transform="translate(0,0)"/>
<path d="" fill="#193535" transform="translate(0,0)"/>
<path d="" fill="#123535" transform="translate(0,0)"/>
<path d="" fill="#153332" transform="translate(0,0)"/>
<path d="" fill="#133336" transform="translate(0,0)"/>
<path d="" fill="#153337" transform="translate(0,0)"/>
<path d="" fill="#3A3B3C" transform="translate(0,0)"/>
</svg>
